<?xml version="1.0" encoding="UTF-8"?>
<svg id="_레이어_1" data-name="레이어 1" xmlns="http://www.w3.org/2000/svg" viewBox="0 0 301.73 300">
  <path d="M144.87.29c.49-.22.99-.21,1.47,0,1.14-.08,2.31-.18,3.53-.29h1.77c1.22.12,2.4.21,3.53.29.48-.22.98-.22,1.47,0,.74-.08,1.52-.18,2.36-.29h.29c68.33,2.37,127.51,54.7,140.24,123.1,2.24,12.03,2.46,24.41,1.98,36.63-2.69,69.55-56.8,128.54-124.9,140.22-.36.06-.75.03-1.14,0s-.78-.12-1.17-.21l-.59-.28v-104.76l.59-.37.2-.59h34.77l.36.59-.55-.29c2.13-14.34,4.26-28.67,6.39-43.01l.64-.27-.21.59h-41.24l-.36-.59c-.25-.63-.51-1.28-.52-1.97-.14-6.91-.27-13.88-.26-20.79.03-17.53,4.17-27.94,23.1-29.56,6.82-.14,13.62-.16,20.43-.05l.82.54-.59-.2v-36.54l.59-.36c-.74.16-1.5.31-2.25.21-25.83-3.35-56.1-7.19-74.95,15.01-11.74,13.83-12.92,29.92-13.04,47.25l.25,23.04c.17,1.3-.06,2.44-.68,3.4l-.2.59h-37.71l-.36-.59.59.21v43.01l-.59.36.2-.59h37.71l.36.59.59.28v104.76l-.59.37c-.38.1-.77.18-1.15.22s-.76.07-1.12.02C57.12,289.58,1.72,226.86,0,159.59v-.59c.11-.71.21-1.4.29-2.06-.21-.69-.21-1.38,0-2.06-.08-.84-.18-1.72-.29-2.65v-2.94c.25-1.06.26-2.18,0-3.24v-.88c.24-.56.24-1.2,0-1.77.02-.49-.03-.99,0-1.47.85-36.85,18.3-72.85,44.28-98.6S105.72.74,142.22,0h.29c.8.12,1.59.21,2.36.29Z"/>
  <path d="M149.87,0c-.88.54-2.42.29-3.53.29-.26-.08-.25-.18,0-.29h3.53Z"/>
  <path d="M155.17,0c.26.08.25.18,0,.29-1.11,0-2.66.25-3.53-.29h3.53Z"/>
  <path d="M0,149.28v-3.24c.49.69.5,2.49,0,3.24Z"/>
  <path d="M.3,154.87c-.08.26-.18.25-.29,0v-2.65c.53.58.29,1.82.29,2.65Z"/>
  <path d="M144.87,0c.26.08.25.18,0,.29-.74,0-1.87.23-2.36-.29h2.36Z"/>
  <path d="M159,0c-.49.53-1.62.29-2.36.29-.26-.08-.25-.18,0-.29h2.36Z"/>
  <path d="M.3,156.94c-.08.26-.18.25-.29,0v-2.06h.29c0,.69,0,1.38,0,2.06Z"/>
  <path d="M0,159v-2.06h.29c0,.65.22,1.66-.29,2.06Z"/>
  <path d="M0,145.16v-1.77c.48.3.47,1.49,0,1.77Z"/>
  <path d="M146.34,0v.29c-.49,0-.98,0-1.47,0v-.29h1.47Z"/>
  <path d="M156.65,0v.29c-.49,0-.98,0-1.47,0v-.29h1.47Z"/>
</svg>