<?xml version="1.0" encoding="UTF-8"?>
<svg id="_레이어_1" data-name="레이어 1" xmlns="http://www.w3.org/2000/svg" viewBox="0 0 907.55 300">
  <path d="M697.88,0c.94,1.5,3.44.91,4.98.92,50.01.52,159.81,10.21,193.69,50.27,5.95,7.04,8.73,14.17,10.91,23.06-.21,2.63.3,5.58,0,8.15-4.43,38.55-64.76,75.21-96.15,91.93-8.55,4.56-23.58,13.07-32.24,15.81-.46.15-1.48.25-1.34-.44,2.29-2.06,4.32-5.42,5.23-8.36.63-2.03,2.02-8.02,2.02-9.75v-27.62h-33.57v13.58h9.07v17.66c0,1.02-3.5,4.69-4.77,5.2-6.97,2.82-13.63-.33-14.32-7.87-1.03-11.22-1.04-34.15,0-45.35.67-7.15,3.96-10.32,11.39-9.5,8.15.9,8.07,8.87,7.7,15.42h23.59c2.43-19.84-8.23-31.24-27.64-32.63-17.79-1.28-36.71,3.53-38.58,24.05-1.09,11.94-1.4,41.59.39,53,1.37,8.7,7.18,15.1,15.3,18.23,1.39.54,8.3,2.55,9.24,2.55h15.88l-19.08,8.57c-153.67,58.05-318.53,88.9-483.12,92.81-62.65,1.49-188.02-.93-237.64-42.55-52.26-43.84,17.05-95.15,53.68-117.52,14.91-9.11,45.69-26.83,61.54-31.85.46-.15,1.48-.25,1.34.44-10.22,9.87-9.01,28.25,1.38,37.57,7.41,6.64,32.04,16.52,34.5,24.42,3,9.6-3.28,14.63-12.56,12.53-7.31-1.65-4.82-11.48-5.18-17.01h-25.4v14.04c0,3.29,5.75,11.83,8.62,14.03,14.42,11.06,51.74,9.46,57.89-11.03,10.04-33.43-19.08-35.18-36.87-49.79-8.11-6.67-5.91-17.75,4.27-17.02,8.52.61,8.12,7.63,7.82,14.46h23.59c3.45-25.72-16.21-32.21-37.92-30.14-1,.1-3.09,1.07-2.9-.64,70.97-28.45,144.65-49.79,219.54-65.67C460,15.32,552.84,2.5,642.53,0h55.34ZM498.28,130.4c2.03-18.55-6.65-28.32-24.96-29.87-21.33-1.8-42.97,5.4-39.22,30.99,3.21,21.87,37.68,25.58,42.19,38.53,2.79,8.01-2.45,14.11-10.91,12.65-8.53-1.47-7.02-10.37-7.02-16.99h-25.4c-.86,17.41,4.41,29.55,22.48,33.26,16.22,3.32,40.05.47,44.43-18.55,4.18-18.17-2.58-26.74-17.08-35.91-5.35-3.39-20.14-9.72-23.03-14.15-5.28-8.12,1.67-16.87,11.08-12.87,4.97,2.11,3.83,8.51,3.86,12.9h23.59ZM210.68,196.5h26.31l12.25-83.32,13.61,83.32h24.95l-17.76-93.32-42.11.06-17.25,93.26ZM346.77,103.23h-39.01l-1.81,93.27h23.59l.92-82.4,15.42,82.39,24.37-.11,14.16-75.06,2.29-8.13v83.31h23.59l-1.81-93.27h-37.65l-12.7,69.74-11.34-69.74ZM546.37,103.23h-24.5v71.08c0,1.01,1.33,6.8,1.76,8.2,6.96,22.43,52.54,22.48,61.91,3.74.42-.85,2.56-6.15,2.56-6.5v-76.52h-23.59v72.9c0,.24-1.95,3.66-2.47,4.12-4.57,4.02-15.67,2.13-15.67-4.12v-72.9ZM649.79,103.23h-35.38v92.36h23.59l-1.36-76.07,23.13,76.07h33.57v-92.36h-23.59l1.36,73.36-21.32-73.36Z"/>
</svg>