<?xml version="1.0" encoding="UTF-8"?>
<svg id="_레이어_1" data-name="레이어 1" xmlns="http://www.w3.org/2000/svg" viewBox="0 0 290.63 300">
  <path d="M290.63,0l-.78,182.43-79.79,80.06c-18.05,2.97-37.09-.16-55.46,1.63l-37.83,35.87h-44.11v-36.33H0V53.46C0,50.87,14.16,10.22,16.31,4.36c.59-1.59,1.33-3.04,2.37-4.36h271.94ZM263.64,26.99H44.63v192.04h63.31v35.29c1.81.45,2.07-.75,3.12-1.55,7.14-5.47,28.78-31.61,34.19-33.28l72.45-1.25,45.94-45.41V26.99Z"/>
  <rect x="118.33" y="83.04" width="25.95" height="79.93"/>
  <rect x="190.98" y="83.04" width="25.95" height="79.93"/>
</svg>