<?xml version="1.0" encoding="UTF-8"?>
<svg id="_레이어_1" data-name="레이어 1" xmlns="http://www.w3.org/2000/svg" viewBox="0 0 1440.43 300">
  <path d="M.53,136.2c3.17-31.25,23.47-67.94,46.77-88.74C126.9-23.55,296.66-16.48,354.96,79.52l-114.18,67.41-2.65-.86,60.48-95.82c1.83-3.64-.95-4.22-3.43-5.82C214.68-7.46,105.87,66.42,114.15,160.16c9.95,112.63,154.6,150.17,221.13,60.27.34,5,4.67,11.75,3.36,16.62-.56,2.07-15.75,16.69-18.69,19.16C225.16,336.19,14.93,304.97.53,163.08c-.7-6.94-.7-19.95,0-26.88Z"/>
  <path d="M608.89,94.98l96.2-43.09c25.16-2.45,44.33,11.49,49.62,35.93l75.9-34.62c21.73-6.01,45.14,4.17,53.27,25.16.8,2.07,4,12.75,4,13.94v199.82h-88.19V112.01c0-1.97-7.46-11.85-9.89-13.45-10.33-6.83-24.75-4.19-31.23,6.55-.71,1.18-3.87,8.21-3.87,8.69v178.32h-86.39V94.98h-59.4Z"/>
  <path d="M1161.45,94.98l88.69-41.62c27.8-7.07,50.79,7.51,58.05,34.5l73.64-34.19c23.56-10.54,58.59,11.95,58.59,36.83v201.61h-88.19V112.01c0-9.07-15.2-17.77-24.27-17.14-8.43.59-20.72,10.65-20.72,18.93v178.32h-86.39V94.98h-59.4Z"/>
  <path d="M635.88,292.11h-88.19l-9.92-39.44c-2.35.05-12.1,12.51-15.26,15.28-44.62,39.23-127.9,43.16-161.7-11.1-46.89-75.29,55.47-138.6,122.05-108.98l30.61,16.99-17.99-69.88h-109.79l118.04-42.86c37.3-4.91,69.65,14.18,81.22,49.65l50.92,190.34ZM473.43,176.06c-48.07,7.67-47.07,80.92,1.52,87.22,67.86,8.79,66.63-98.1-1.52-87.22Z"/>
  <path d="M1031.45,52.47c140.04-15.73,196.6,166.26,77.83,231.62-93.19,51.28-200.84-28.99-182.82-131.85,8.79-50.19,53.76-94.01,104.99-99.77ZM1024.26,68.52c-14.99,1.84-25.34,15.72-24.42,30.42l45.49,168.1c15.45,28.32,56.54,15.12,52.67-16.58-16.31-56.69-28.11-115.54-48.16-170.71-6.74-8.22-14.67-12.58-25.58-11.24Z"/>
</svg>