<?xml version="1.0" encoding="UTF-8"?>
<svg id="_레이어_1" data-name="레이어 1" xmlns="http://www.w3.org/2000/svg" viewBox="0 0 518.52 300">
  <path d="M0,160s.36-.39.37-.86c.1-3.27-.1-6.57-.02-9.85h31.07v10.89l-.54.54h-9.11v18.92h35v-18.92h-9.46l-.54-.54v-10.89h31.78v10.89l-.54.54h-9.82c-.1.26.36.43.36.54v54.25c0,.09-.29.21-.28.36l.46.54h9.82v10.53l-.54.54h-30.71l-.54-.54v-10.53h10v-25.7H21.78v25.7h9.64v10.53l-1.23.55c-9.4-.26-18.85.28-28.25,0-.68-.02-1.35.03-1.95-.37v-.36l.36-10.35h9.64v-55.68L0,160.36c0-.12,0-.24,0-.36Z"/>
  <path d="M350.68,12.95c0,.15-.37.45-.36.71l2.86-.35c-.11,1.8-1.29,1.97-2.86,1.79-.07.05.52,1.03.71,1.25.49.53,2.39,1.23,2.14,1.78-.62,1.36-2.44-.21-2.86-.01-1.42.66-3.85,4.13-5.23,4.45l-1.56-.92-1.06-5.84c-.49-.2-1.07.36-1.25.36h-5.18c-.44,1.61.97,9.09,2.13,9.84.8.52,4.61-3.22,5.55-3.77-.02,1.45,1,.87,1.26,1.3.34.58,1.01,7.63,1.07,8.86.11,2.35.08,5.15-.02,7.51-.09,2.07-1.31,6.96-.37,8.59.86,1.5,6.26,5.9,7.91,7.09,2.6,1.88,5.71,3.31,8.18,5.2l-1.07.72,2.12-.04.23-1.05,6.22-.69-.36,1.24-20.34,3.94c-1.24.64-.51,3.39-.89,4.82-.35,1.34-1.79,2.66-2.24,4.54-1.17,4.85.14,11.69,1.59,16.43.71,2.33,2.17,4.66,2.51,7.13.77,5.63-.44,10.93,4.57,15.07.92.76,2.25,1.18,2.98,2.02.63.73,2.29,3.67,1.3,4.41h-99.63c-.35,0-1.72-2.26-1.61-2.86h17.86c-.51-2.06-4.48-3.36-2.82-5.85.75-1.14,2.64-.55,2.5-2.18l-3.3-7.8c-1.41-1.79-10.62-7.13-10.65-8.97.87-3.98,4.92-5.07,7.5-7.5,2.08-1.97,2.93-3.04,5.32-5.03.35-.29,3.79-3.67,2-3.71-.26,0-3.76,2.43-4.28,2.86-2.39,1.96-4.33,4.47-6.8,6.41-1.11.87-2.69,1.38-3.57,2.14-1.14.99-6.17,8.01-6.91,9.51-2.49,5-3.51,12.76-1.29,17.98.67,1.58,1.91,2.59,2.34,4.1l-.56.9h-38.39v-.53c.41-.31,2.16-2.32,2.32-2.32h25.35l.51-.58c-.23-1.28-.51-2.54-.31-3.86.13-.87,1.17-1.19.36-2.44-.32-.5-1.47-.56-1.37-1.42.92-3.79,2.08-7.52,2.96-11.32.49-2.09,1.15-9.64,2.86-10.35.73-.3.5.49.53.88.5,6.41-4.38,16.06-3.92,20.32.07.63.6,1.16.69,1.83.44,3.1-2.02,6.71,3.1,6.93,2.57.11.41-5.19-1.68-5.2.33-8.31,3.58-16.21,4.02-24.51l4.57-4.89c-5.56,1-16.84,2.6-18.69,8.98-.61,2.13.5,5.15-2.3,6.27-4.92,1.98-6.1-1.94-9.91-3.83-.27-.11-.05.51-.44.7-.82.4-5.61,1.58-5.81,1.8,3.52,7.71,1.84,17.11-5.45,21.85-12.13,7.89-27.65-1.94-25.64-16.12l-7.11-1.46c-.04-.39-.03-.72.17-1.08.9-1.6,7.61-2.83,9.22-3.9,1.51-1,3.79-5.47,6.55-6.04l3.7-1.47c-2.19.09-4.43-.14-6.62-.02-1.33.07-5.06.94-5.98.68-1.32-.38-3.22-7.01-5.47-7.71-9.75,1.72-19.84.98-29.43-1.33-7.73-1.86-17.28-6.94-25.01-2.88-2.89,1.52-5.34,4.92-3.03,8,6.46-2.63,14.18-1.02,19.3,3.61.88.79,2.19,2.77,2.92,3.15,1.47.77,8.34,1.52,9.03,2.22.55.56-.12.61-.5.75-1.85.68-4.33,1.05-6.29,1.39,4.71,14.42-8.19,28.42-23.01,24.25-9.97-2.8-15.47-13.28-12.7-23.18l-7.14-1.61c1.97-1.95,7.68-1.99,9.47-3.38,1.02-.79,2.77-3.31,4.09-4.48.72-.63,1.59-1.03,2.34-1.61.44-.71-.51-2.05-.57-3.04-.11-1.73,1.35-4.76,2.52-6.05,2.38-2.63,7.48-2.77,8.95-6.05,1.14-2.55,1.99-12.62-.4-14.28-1.8-1.25-4.79-1.94-6.88-3.47-6.68-4.9-6.47-13.9,3.15-8.16,1.06-.53-.04-1.63.33-2.14,3.48-1.89,4.43,4.23,6.45,5.01,3.8,1.46,10.86,1.07,15,1.43,12.1,1.06,21.26.77,28.54,11.8,6.12,9.27,11.88,22.54,25.02,22.49,21.53-.09,22.29-24.15,33.92-37.16.75-.84,6.09-6.15,6.97-5.35.15.67-.38.85-.71,1.25-3.14,3.8-6.13,6.95-8.72,11.27s-3.9,5.33-1.91,10.42c2.39,6.11,7.82,10.96,14.56,7.94v-8.21c0-4.18,3.53-12.42,6.55-15.4,2-1.97,9.98-6.39,12.74-7.44,6.44-2.43,13.33-2.03,19.63.53-8.64,8.71-14.9,19.76-17.69,31.75-.33.49-9.22,3.07-10.35,3.22s-.17-1.02-.17-1.25v-5.89c-1.45-.38-4.34,3.78-3.93.36-.96-.3-1.7,1.83-1.42,2.14l1.22-.32c.77.18.73,4.34,1.28,5.32-2.5.69-4.86,1.35-7.5,1.08l-.36-3.57c-6.17,1.38-10.85-.85-14.08-6.09-1.08-1.76-1.52-3.4-2.32-5.18-.19-.42.17-.64-.74-.5-3.7,8.35-6.4,18.33-14.69,23.34l-8.17,2.71,4.77,1.41c6.95-1.9,13.9-3.94,20.94-5.52,9.26-2.07,17.86-2.74,27.3-5.2,15.3-3.98,30.12-9.51,44.8-15.29,2.03,4.72,5.42,8.5,8.97,12.1-4.01,1.02-8.53,1.79-12.67,1.43-7.26-.65-13.86-7.11-21.56-2.8.86,6.89-6.86,9.54-10.72,13.73-5.27,5.72,3.71,10.75,6.39,14.6,1.41,2.02.26,2.5.34,4.27.15,3.16,1.23,6.5.73,9.83h66.42l.74-4.05-2.11-1.18c-.36-5.12-.78-9.51-4.53-13.32l-5.56-15.86c-2.85-1.35-6.23-1.66-9.25-2.89-6.13-2.5-10.81-7.25-12.76-13.66-.33-1.09-1.23-3.65-.24-4.32,7.96-3.97,17.1-7.29,23.52-13.56,1.23,1.29,9.1,2.13,9.46.47l-.7-2.3,1.78.72c.35-3.85.83-7.74.73-11.62-.06-2.4-.37-6.14-.78-8.5-.09-.52-.37-2.74-.84-2.72l-5,3.58-.68-.7c-.82.62-3.04,1.38-2.54,2.47l3.18-1.4c3.49,4.9,4.24,11.33,2.68,17.08-7.99-.41-13.58-10.15-20.3-12.3-.93-.3-1.89.19-2.47-.75-.15-.25-1.16-3.93-1.15-4.24.03-1.02.94-1.51.96-2.12.02-.47-.46-1.03-.52-1.53-.25-2.29,1.63-2.82,1.73-3.84.08-.88-.56-1.72-.28-3.12s1.67-2.12,1.71-2.3c.28-1.18-.27-2.17.56-3.64.7-1.24,2.11-1.34,2.47-1.82.83-1.12.67-4.37,3.39-5.17,0-.27-2.86-2.32-2.49-3.39,1.19.35,2.23,1.12,3.48,1.34,2.55.44,1.73-.39,3.93,1.16,1.74,1.22,3.19,2.06,5.28,2.5.98.03,1.22-1.51.54-1.99-1.41-.99-1.62,1.03-2.28.88l-3.44-2.64c1.55-2.24,6.3-1.95,8.47-.98,1.64.74,2.16,2.93,3.54,3.96,3.42,2.53,11.55,1.68,10.69,7.22-.49.69-2.35.15-3.17.34-.34.08.13.66-1.32.71.02-.47.06-.91-.35-1.25l-2.15-.53c-.11,1.76,1.09,1.83,2.5,1.78ZM343.21,15.13c.07,1.02.88,6.27,1.93,6.03.26-.06,3.56-3.39,3.79-3.74.38-.58-.19-2.6-.56-3.04-.94-1.12-3.9.48-5.15.75ZM174.19,56.91c-.1-.17-2.73-2.08-3.17-2.35-11.18-6.97-25.1-1.85-36.64-5.85-2.25-.78-8.04-4.62-9.61-4.71-2.55-.16-1.73,2.97-.8,4.41,7.16,11.13,27.66,5.24,38.33,5.95,4.11.27,8.29,1.41,11.79,3.56.34-.05.22-.79.1-1.01ZM262.83,46.5c-8.02,3.53-7.83,14.64-7.5,22.12l3.88-2.38c-1.01-6.75-1.05-14.28,3.62-19.74ZM359.6,60.78l-3.54-1.64-9.31-6.57c-1.14,3.83,2.73,6.66,1.79,10.71,3.14-1.02,7.04-.96,10.14-1.82.41-.11.86-.12.93-.67ZM137.12,65.42c-.91-.15-.55.08-.74.5-.36.79-2.67,6.67-2.45,6.98,1.82.99,4.46-.08,6.08.17,1.48.23,3.88,2.53,6.05,1.99-2.73-3.43-7.4-5.22-8.93-9.63ZM337.11,79.69c-.52-4.8-4.84-2.43-8.02-2.48-.81-.01-2.93-.35-3.79-.53-2.28-.48-4.22-2.04-6.41-1.62l6.19,3.27c3.79,1.89,7.91,2.18,12.03,1.36ZM352.1,116.46c.44-2.21-2.75-1.5-3.16-2.73-.06-2.51-.66-5.09-1.47-7.45-.86-2.48-1.77-3.04-2.7-4.8-2.67-5.04-3.8-13.58-6.42-18.93-.47-.96-.88-1.65-2.11-1.41l-.52.8c2.13,6.69,4.41,13.33,6.91,19.88,1.22,3.19,1.2,4.37,2.04,7.24.16.55,1.28,1.32,1.68,2.25.7,1.61.6,3.58,1.89,5.06l3.85.07ZM135.34,89.69c.18-.8.8-2.49.01-3.05-.98-.26-4.94-.99-5.41-.31l-.26,2.77.48.59h5.18ZM238.19,86.12c-.61-.48-12.97,2.75-14.49,3.53-.37.19-.68-.18-.51.74l5.18,2.86,6.7-1.07c1.11-2.04,1.34-4.39,3.12-6.07ZM141.77,90.04c-.88-1.18-2.48-1.75-3.75-2.39-.74.43-1.4,1.13-1.25,2.04l5,.35ZM126.06,90.04c.37-.32-1.29-2.01-1.66-2.08-.76-.14-3.26,1.35-2.27,2.44l3.93-.36ZM203.2,91.83l-.36-1.79c-.85.4-1.81.39-2.69.7-.39.13-4.47,1.83-3.73,2.52l6.78-1.43ZM208.19,91.11c-.8-1.1-4.73-1.78-3.75.36l3.75-.36ZM129.99,96.11l-1.05-4.84c-1.91-.57-3.79.5-5.74.2,1.82,2.25,3.4,5.4,6.78,4.63ZM134.63,91.12h-4.29c.26,7.18,3.23,6.12,4.29,0ZM142.13,91.48l-6.09-.2-1.41,4.83c3.21-.06,5.77-2.09,7.5-4.64ZM125.34,96.11c-1.61-2.04-3.59-5.81-6.62-3.59-.26.19-1.53,2.13-1.55,2.39-.07.72,1.82,1.2,2.28,1.2h5.89ZM221.23,91.83c-1.63-.18-3.51.13-5.18,0l2.3,2.86,4.84-1.79c.64-.67-1.7-1.04-1.96-1.07ZM211.05,92.19c-1.19.47-6.07.57-6.63,1.41l.21,5.02c.25.26,2.7-.47,3.11-.82.3-.25,3.55-5.37,3.31-5.61ZM145.7,95.04l-1.59-2.41c-1.69.52-3.14,1.68-4.12,3.13l5.71-.71ZM151.77,93.26l-3.93-.72,1.23,2.02c.35-.11,3.54-.45,2.7-1.31ZM214.98,95.75c.17-.21-1.97-2.97-2.64-2.83l-3.07,4.62,5.71-1.79ZM114.63,93.26c-.12-.13-3.08.77-3.47.98-.42.23-.6-.01-.46.8,2.11.09,3.85,1.24,3.93-1.78ZM203.19,93.62l-5.35,1.07c.53,1.01,4.75,6.85,5.68,4.05l-.32-5.12ZM191.94,100.04c1,.3,5.33,0,6.78,0,.14,0,1.48-.32,1.25-.89-.1-.23-3.12-3.62-3.38-3.79-.76-.49-3.05.27-3.76.92-.61.56-2.15,3.38-.89,3.76ZM144.2,96.22c-2.93.23-7.68.23-8.5,3.63.47.71,1.22.59,1.95.55,1.52-.08,6.94-.92,8.15-1.51,1.05-.52,1.17-1.55.44-2.42-.55-.65-1.34-.31-2.04-.25ZM126.59,97.18c-1.21-.34-3.78.25-5.18,0l5.53,2.16.89-.91c-.02-.09-1.16-1.23-1.25-1.26ZM188.17,100.02l.73-2.83-4.64,1.43c-.89.96,3.32,1.62,3.9,1.4ZM216.39,97.19c-1.8.47-12.01,2.06-8.18,4.48l8.39-3.41-.21-1.07ZM126.76,100.42c-2.61-.12-7.42-3.08-9.72-2.8-1.65.2-1.8,4.89-.78,5.61,1.53,1.08,8.07-.92,10.16-1.22l.33-1.59ZM216.66,99.73l-8.11,2.98-.33,1.39c.21.63,8.02,2.88,9.27,2.57.69-.5.38-5.77-.2-6.63l-.64-.3ZM147.13,100.4l-10.91,1.41-.16,1.08c1.84.12,8.98,3.57,10.13,3.19,1-.33.98-4.66.94-5.69ZM199.93,104.99v-1.51c-.36-1.05-7.84-2.06-9.2-1.62-.8,2.15.03,4.2.33,6.37l8.86-3.24ZM127.13,103.25c-1.77.15-9.94,1.18-10.55,2.5-.41.89,1.17,4.56,2.17,4.65,1.74.17,6.41-4.99,8.31-5.81l.08-1.35ZM135.9,103.98c-1.66.35,1.29,3.38,1.76,3.92.69.79,3.18,3.61,3.78,4.07,1.93,1.47,3.65-2.35,4.2-3.85-.15-.82-9.22-4.25-9.74-4.14ZM128.08,105.43c-.49.08-7.54,5.8-7.68,6.29-.48,1.73,3.09,3.7,4.48,4.33.64.06,1-.66,1.26-1.12.47-.86,2.85-7.21,3.01-8.09.12-.66-.39-1.52-1.06-1.4ZM134.1,105.84l-1.14.78c.52,1.59,1.3,9.47,2.38,10.03.8.41,4.5-1.24,5-1.79.4-.45.45-.84.36-1.42-.08-.5-6.1-7.56-6.61-7.6ZM208.06,105.78l-.59.87,5.53,6.63c.31.34.49.38.91.17.69-.35,3.58-4.56,3.07-5.21l-8.91-2.45ZM194.39,113.48c.37.35,1.51,1.36,2.03,1.03.36-.23,4.68-6.57,4.83-6.99.31-.89-.59-1.47-1.35-1.36-.56.08-7.38,3.16-7.61,3.51-.37,1,1.39,3.13,2.11,3.81ZM131.74,106.5l-1.43.18c-.17,1.99-3.63,8.51-3.14,9.91.3.88,5.65,1.84,6.25-.12.54-1.76-1.59-7.75-1.67-9.97ZM202.65,107.56l-5.18,7.66c.03,1.31,5.24,2.72,6.46,2.15,1.06-.75-.45-7.05-.02-8.59l-1.26-1.22ZM205.03,107.95l.64,9.43c.81.6,6.11-1.72,6.65-2.7.29-.53.04-.54-.19-.9-1.4-2.22-3.82-3.63-5.17-5.92l-1.93.09Z"/>
  <path d="M291.4,149.3l19.11,47.47,19.11-47.47h28.57v10.89l-.54.54h-10.18v55.15l.54.54h10.18v10.53l-.54.54h-30.71l-.54-.54v-10.53h9.46l.54-.54v-52.11c0-.07-.33-1.39-.71-1.25l-21.82,53.33c-.76,1.07-5.02.52-6.4.39l-22.85-53.72v53.36l.54.54h9.46v10.53l-.54.54h-31.25v-11.06h9.82l.54-.54v-55.15h-10.18l-.46-.54c-.01-.14.28-.27.28-.36v-10.53h28.57Z"/>
  <path d="M222.66,149.3c8.54.75,16.83,5.99,18.93,14.63s-.96,20.74-10.89,22.85c1.52,1.13,3.09,1.79,4.47,3.2,4.18,4.29,4.59,9.12,4.83,14.81.16,3.86-.15,7.76-.01,11.61h10v10.53l-.54.54h-20.35c-.51-.31-.49-.71-.55-1.23-.68-5.8-.07-13.29-.32-19.31-.09-2.14-.15-6.19-.53-8.04-.63-3.03-4.74-7.12-7.88-7.12h-23.75v24.09l.54.54h9.46v10.53l-.54.54h-30.53v-11.06h9.46l.46-.54c.01-.14-.28-.27-.28-.36v-54.25c0-.11.45-.27.36-.54h-10v-11.42h47.67ZM196.05,160.72v19.81l.54.54h24.28c4.14,0,9.91-4.14,10.5-8.42.65-4.72-2.16-11.93-7.65-11.93h-27.68Z"/>
  <polygon points="436.74 149.3 436.74 171.07 426.03 171.07 426.03 160.72 394.96 160.72 394.96 179.28 421.38 179.28 421.38 190.34 394.96 190.34 394.96 216.4 425.67 216.4 425.67 201.41 437.1 201.41 437.1 226.93 436.56 227.46 373.35 227.46 372.82 226.93 372.82 216.4 383.17 216.4 383.17 160.72 373.35 160.72 372.82 160.18 372.82 149.3 436.74 149.3"/>
  <polygon points="157.48 149.3 157.48 170.53 156.95 171.07 146.41 171.07 146.41 160.72 114.99 160.72 114.99 179.28 141.77 179.28 141.77 190.34 114.99 190.34 114.99 215.86 115.52 216.4 145.52 216.4 146.06 215.86 146.06 201.41 157.48 201.41 157.48 226.93 156.95 227.46 93.21 227.46 93.21 216.4 103.56 216.4 103.56 160.72 93.21 160.72 93.21 149.3 157.48 149.3"/>
  <path d="M466.2,199.98c.91,2.11,1.26,4.56,2.15,6.78,4.75,11.81,19.65,14.84,30.65,10.31,9.44-3.89,11.15-16.32,2.03-21.55-12.06-6.92-35.97-2.7-41.81-19.25-4.7-13.33,3.99-24.73,16.79-27.86,9.03-2.2,21.48-.47,27.68,6.96.58-.27-.18-.83-.18-.89v-5.18h10.71v22.84h-10.53c-.74-1.58-.93-3.02-1.78-4.65-6.18-11.8-30.72-13.36-32.3.57-1.38,12.15,20.91,12.35,28.61,14.17,14.73,3.49,23.03,14.05,19.46,29.59-4.71,20.5-37.78,23.14-50.96,9.56v5.71h-10.71v-27.13h10.18Z"/>
  <path d="M398.17,126.45H108.56v-5.35c4.38.35,9.46-.47,13.75,0,3.85.42,6.01,2.09,10.73,1.8,2.99-.18,5.52-1.57,8.18-1.82,17.09-1.58,36.6,1.23,53.95,0,6.19,2.08,11.65,2.46,17.82,0l184.84.17.33,5.2Z"/>
  <path d="M375.14,116.46c1.78-.36,3.11-2.25,3.01-4.05-.32-5.46-6.61-13.97-5.96-18.53.55-3.83,4.82-9.28,5.55-13.02.46-2.36.04-4.53.07-6.68.04-2.48,2.86-10.37,4.14-12.66.6-1.07,4.02-3.34,4.01-4.13-1.83-1.36-1.91-3.17-2.08-5.35-.04-.55.38-1.17.35-1.77-.04-.8-.82-1.47-.98-2.24-.82-3.83,2.62-1.55,4.18-2.06s3.05-3.44,4.84-3.97c1.46-.06,5.35,3.68,5.54,5.06.32,2.26-3.46,4.2-3.88,5.76-.38,1.42,1.77,5-2.19,4.56.29,2.29,3.9,4.54,4.48,6.23.65,1.9,2.09,8.02,1.96,9.84-.29,4.32-5.06,4.8-5.27,6.81l3.12,14.05-5.32.4c-.35,1.96-1.75,3.75-1.46,5.82.08.59.55,1.07.62,1.54.66,4.46.25,8.93.81,13.4-2.74,1.76-4.89,4.91-8.58,3.82-.51-.69,3.2-3.8,3.48-4.9.33-1.29.21-5.89.1-7.42-.18-2.44-1.8-9.46-3.57-11.06-1.54-1.38-3.51,1.11-3.56,2.13-.05.97,3.05,8.16,3.46,10.46.21,1.18-.06,2.35.11,3.46.22,1.47,1.92,3.38.72,5.05-.32.45-4.21,2.17-4.87,2.27-2.49.39-12.43.38-15,.04-1.41-.19-2.32-1.43-2.3-2.87h14.46ZM388.81,48.73c-.39-.39-2.33-.65-2.73-.39.05,1.22-1.51,2.75-1.68,3.49-.04.2.77,3.9.88,4.08.49.76,2.24.25,2.53,1.3-.93-.08-.89,1-1.42,1.62-1,1.17-2.78,1.98-2.5,3.74,1.67-2.23,6.14-2.76,6.7-5.62.1-.5-.33-1.01-.11-1.52.17-.42,1.04-.73,1.21-1.33.4-1.41-1.37-2.1-2.04-3.19-.38-.62-.51-1.84-.85-2.19ZM379.96,79.34c2.07-.38,2.9,1.39,4.77-.04,1.58-1.21-1.31-3.13-2.44-3.88l-2.33,3.92ZM388.22,89.28c-.37-2.1.9-4.42-1.47-5.48,1.81-1.87,3.21-5.66-.9-4.11-1.02,1.19-.1,8.43-3.18,2.12l-3.77-1.4c-.36,1.21-.69,2.48-1.17,3.66-1.02,2.48-4.28,8.37-4.48,10.53-.06.65,1.48,4.87,1.75,5.04.58.37,1.84-.17,2-.9.2-.91-.66-1.2,1.17-2.09l-1.42-1.24c1.75-.45,2.81-2.74,3.32-4.36.14-.45.66-5.16,1.68-4.21,1.44,4.8,1.62,10.1,4.27,14.47l1.8-.19c-1.07-1.5-.66-3.26-.71-4.99l1.42,2.14,2.15-8.38-2.46-.59ZM378.13,100.8c-.49-.31-2.29.28-2.43.89,1.17,4.77,5.13,3.49,2.43-.89ZM388.53,102.9h-2.5s.4,3.17.4,3.17l2.31-.3-.21-2.87Z"/>
  <path d="M251.05,255.48c.31-.51.71-.49,1.23-.55,4.37-.51,15.06-.06,19.01,1.74,8.21,3.74,9.42,14.73,2.23,20.2l-3.18,1.99c2.38.98,4.25,3.09,5.85,5.04,2.76,3.37,5.85,8.37,8.22,12.13.74,1.17,1.83,2.58,1.99,3.9h-6.96c-3.68-4.28-6.16-9.5-9.67-13.89-3.36-4.2-6.11-6.48-11.93-5.74v19.1l-.54.54h-5.71l-.54-.54v-43.9ZM257.83,260.84v13.74h6.61c.58,0,3.06-.94,3.71-1.29,3.23-1.76,3.57-5.89,2.36-9.06-1.33-3.48-6.37-3.77-9.62-3.94-.72-.04-2.82-.19-3.05.55Z"/>
  <path d="M236.05,299.92h-6.25c-.17,0-.78-.38-.89-.64l-5.35-12.76h-19.3s-5.33,12.79-5.33,12.79c-.14.2-.76.61-.92.61h-5.71l-.38-1.09c5.98-12.65,11.06-25.72,16.92-38.42.42-.91,1.99-4.77,2.38-5.12.64-.57,4.5-.7,5.15.21l19.67,44.41ZM220.69,280.65l-7.32-17.49-6.61,17.49h13.93Z"/>
  <path d="M162.84,280.29v19.1l-.54.54h-5.71l-.54-.54v-43.9l.54-.54h15.36c3.01,0,7.97,1.62,10.19,3.73,8.16,7.75,1.83,21.61-9.48,21.61h-9.82ZM162.84,274.58h9.82c.9,0,3.76-1.6,4.46-2.32,2.91-3.02,2.13-8.95-1.78-10.71-.41-.18-2.77-.89-3.04-.89h-9.46v13.92Z"/>
  <path d="M304.6,61.47c-10.43,4.16-21,7.89-31.77,11.08-1.23-1.71,5.4-15.74,6.72-18.09,2.65-4.72,6.02-9.62,10.41-12.82l11.64,1.62c.3,1.98-.3,3.82-.21,5.93.18,4.4,2.08,8.15,3.21,12.28Z"/>
  <path d="M357.46,257.44v7.14c-3.85-2.93-8.09-4.76-13.05-4.3-6.49.6-8.36,5.71-3.19,10,6.56,5.45,18.93,6.96,18.02,18.74-1,12.94-18.79,13.11-27.14,7.32v-8.21c4.05,4.6,11.93,8.17,17.82,5.14,4.92-2.53,3.08-7.62-.56-10.43-6.42-4.97-18.77-7.49-17.58-18.05,1.3-11.51,17.79-12.35,25.67-7.35Z"/>
  <path d="M325.32,4.39c-.7,1.26-2.61,1.06-3.59,2.04-1.47,1.49-4.09,6.99-4.73,9.1-1.95,6.41-1.32,12.66-.62,19.2,2.3-.36,4.11.88,5.89,2.15l9.47,9.8c-6.47,5.41-14.12,9.23-21.78,12.68-.17-5.26-.88-10.94.09-16.15.66-3.55,1.74-2.94,3.66-5.26,2.03-2.45,1.25-2.16,1.21-4.82-.01-.78.38-2.07.3-2.46-.2-1.05-2.38-1.24-2.05-4.3.06-.55.6-1.15.58-1.45-.03-.47-1.06-1.11-.96-2.84.08-1.32.98-2.09,1.08-2.9.2-1.57-1.21-3.17.35-4.99.3-.35.96-.45,1.05-.57s-.48-1.87-.25-2.91c.24-1.12,2.07-2.63,2.08-3.28-1.22-.62-2.28-1.39-2.86-2.68,3.69.86,7.4.02,11.07-.36Z"/>
  <polygon points="310.68 254.95 310.68 299.92 304.79 299.92 304.25 299.38 304.25 255.48 304.79 254.95 310.68 254.95"/>
  <path d="M419.96,145.37h-22.32c-1.63-1.82-3.9-3.8-5.36-5.71-.28-.36-.69-.45-.53-1.07h22.32l5.89,6.78Z"/>
  <path d="M192.48,119.31h-48.57c.07-1.18,1.76-1.49,2.3-2.52,14.17-.79,28.62-.09,42.89-.36,1.4-.11,3.01,1.62,3.37,2.88Z"/>
  <path d="M307.82,41.86c.39.4-1.03,3.95-1.02,4.82.02,1.22,1.01,3.37,1.04,4.99.05,2.55-.64,5.73-.56,8.39-1.49-1.11-1.88-2.33-2.42-4.01-1.4-4.42-1.75-8.63-.45-13.13l3.4-1.06Z"/>
  <path d="M118.92,119.31h-9.82l-.48-.59-.06-2.26h8.03c.16,0,1.91,2.02,2.32,2.32v.53Z"/>
  <path d="M389.96,119.31c-.49-.88,1.55-2.86,1.96-2.86h5.71c.83.69.8,2.22,0,2.86h-7.68Z"/>
</svg>