<?xml version="1.0" encoding="UTF-8"?>
<svg id="_레이어_1" data-name="레이어 1" xmlns="http://www.w3.org/2000/svg" viewBox="0 0 750 300">
  <path d="M0,300V0h750v300H0ZM556.72,267.36c50-10.6,116.59-31.33,153.81-67.43,20.27-19.67,31.78-45.67,19.38-73.11-8.49-18.79-24.93-33.47-41.95-44.7-57.51-37.96-146.73-55.63-214.75-62.32-64.8-6.37-129.98-6.41-194.78-.13-67.97,6.59-156.04,23.86-214.01,60.92-17.73,11.33-35.24,26.45-44.14,45.79-7,15.22-7,31.98,0,47.2,8.9,19.36,26.4,34.45,44.14,45.8,57.94,37.08,146.06,54.33,214.01,60.92,89.53,8.69,190.11,5.73,278.29-12.96Z"/>
  <path d="M349.91,197.22c1.89,2.79,4.09,4.55,6.1,7.15h-80.56c-1.35-4.55-3.01-8.85-5.75-12.89l-23.01-33.91-.16,38.07c-.01,2.99.64,5.88,1.3,8.75h-67.04c.69-2.6,1.38-4.91,1.38-7.54v-92.65c0-3.03-.64-5.71-1.26-8.53h67c-.68,2.62-1.37,5.1-1.36,7.6l.15,40.74,28.72-36.63c2.84-3.63,4.76-7.51,6.39-11.71h69.63c-4.37,3.97-8.41,7.39-12.09,11.78l-27.76,33.06,38.31,56.72Z"/>
  <path d="M608.46,187.26l-40.76.03-4.26,12.35c-.46,1.32-.55,3.46-.83,4.83l-55.07-.02c1.27-2.28,2.81-4.09,3.7-6.51l35.11-94.52c.94-2.54,1.21-4.84,1.54-7.64h93.81c.07,1.47-.02,3.43.31,4.26l38.21,97.19c1.04,2.66,2.58,4.67,4.14,7.14h-70.31c-.33-2.86-.73-5.5-1.72-7.85l-3.87-9.26ZM599.48,164.14l-9.84-25.15-1.97-6.13-2.01,5.99-9.35,25.42,23.17-.12Z"/>
  <path d="M434.23,161.46l-.21,14.22,57.21.05,7.31-1.28v29.93s-130.25,0-130.25,0c.68-2.58,1.34-4.91,1.34-7.58v-92.95c0-2.94-.61-5.48-1.27-8.25h130.18s.02,29.7.02,29.7c-3.05-.53-5.97-1.08-9.21-1.08l-55.3.03v14.31s52.76.07,52.76.07l.02,22.82-52.59.02Z"/>
  <path d="M148.12,204.37h-72.8c.63-2.7,1.29-5.26,1.29-8.19v-91.74c0-3.16-.53-5.73-1.37-8.77h72.98c-.72,3.05-1.32,5-1.32,7.53v93.62c0,2.5.59,4.4,1.21,7.56Z"/>
  <path d="M673.96,118.69c-8.34,1.48-15.72-3.98-17.04-11.55-1.39-7.95,3.24-15.48,11.37-16.91,8.19-1.44,15.9,3.19,17.46,11.22,1.49,7.66-3.13,15.69-11.79,17.23ZM683.03,104.09c-.03-5.95-4.56-10-9.13-10.94-5.33-1.1-10.54.94-12.98,5.73-3.48,6.83.53,14.57,7.28,16.38,7.24,1.94,14.86-3.05,14.83-11.17Z"/>
  <path d="M678.34,112.47c-5.4,2.25-3.12-7.95-9.62-5.52l-.4,5.36c-.04.54-2.18.38-2.4-.14l-.05-16.35,5.4-.29c2.97-.16,5.51,1.19,6.41,3.95.76,2.34-.26,4.93-2.73,6.74l3.39,6.26ZM674.03,103.71c.79-.3,1.35-2.54,1.08-3.26-1.01-2.75-3.46-2.1-6.53-2.16l.04,5.95c1.67.13,3.91.04,5.4-.53Z"/>
</svg>