<?xml version="1.0" encoding="UTF-8"?>
<svg id="_레이어_1" data-name="레이어 1" xmlns="http://www.w3.org/2000/svg" viewBox="0 0 454.72 300">
  <path d="M292.52,87.9c-20.81,63.49-40.54,127.36-59.54,191.41-2.16,4.98-9.09,10.95-14.37,6.5-4.88-4.12-2.28-12.15-1.02-17.33,11.93-48.74,28.67-99.32,44.12-147.17,10-30.98,20.19-65.87,32.78-95.63,5.08-12,11.88-11.31,22.74-15.52,4.9-1.9,9.39-4.67,14.6-5.86,13.14-3.01,12.97,3.26,12.6,14.11-.33,9.72-1.64,19.78-2.72,29.48-5.63,50.88-16.12,101.3-17.02,152.67l.39,3.23c18.04-47.61,38.47-94.31,60.31-140.27,4.74-9.98,9.47-20.04,14.4-29.92,3.43-6.87,8.16-18.29,14.84-22.28,3.32-1.98,6.52-2.11,9.94-3.32,7.08-2.52,18.98-9.23,26.43-6.75,5.32,1.77,3.57,9.77,2.81,14.01-2.69,15.07-7.14,30.92-10.38,46.06-16.64,77.77-31.72,155.88-47.14,233.91-.85,2.83-1.81,3.68-4.51,4.77h-2.65c-1.32-1.02-2.97-1.24-4.36-2.27-2.78-2.08-6.44-7.6-9.66-10.42-5.4-4.74-13.27-7.27-12.9-15.54.48-10.97,3.94-25.8,5.82-36.98,8.92-53.08,19.78-105.84,30.19-158.63.31-1.44.18-1.57-.38-.38-7.05,15.93-14.9,31.56-22.04,47.47-21.12,47.08-40.41,95-58.6,143.3-1.68,4.04-4.77,8.12-9.56,5.64-2.88-1.49-5.11-6.44-7.19-9.1-8.59-10.98-14.57-11.75-16.28-27.66-2.33-21.59.04-46.45,1.89-68.17,2.1-24.56,7.06-52.4,6.82-76.7.25-3.87.12-4.75-.38-2.65Z"/>
  <path d="M0,153.04c1.76-3.57,6.04-4.62,9.56-5.78,15.18-5,31.4-8.22,46.82-12.48,15.29-40.2,31.55-80.03,47.75-119.87,2.1-4.2,5.81-8.9,10.42-10.42,7.53-2.48,10.77,3.22,9.18,9.94l-45.67,114.94c-.09.28.28.2.57.19,3.37-.06,11.07-2.51,14.89-3.3,13.19-2.74,26.46-5.1,39.68-7.68,13.42-34.64,27.76-68.91,42.43-103.03,3.27-6.17,6.51-5.64,12.22-7.48C193.83,6.16,208.55-.43,213.89.02c7.45.64,4.25,11.32,2.47,15.73l-37.51,95.83c-.17.81.37.58.93.55,6.51-.31,19.45-3.61,24.8.22,2.87,2.05,2.95,5.22,1.94,8.33-1.71,5.24-5.04,5.9-8.74,9.07-9.46,8.08-12.29,19.12-24.37,24.88-4,1.91-8.31,2.99-12.58,4.09-16.88,45.08-33.29,90.35-48.4,136.08-.79,2.2-2.32,4.45-4.84,4.82-.58.37-1.98.35-2.65,0-1.94.45-3.58-.64-4.75-2.2-3.57-4.75-7.89-8.95-12.95-12.61-8.38-7.87-8.44-10.77-5.46-22.08,9.44-30.95,19.8-61.87,31.06-92.75l-53.81,11.81c-12.12,31.84-24.03,64.1-35.74,96.79-7.38,14.79-23.69,12.83-18.4-6.32,1.8-6.52,3.94-12.83,6.22-19.2,8.17-22.88,17.01-45.96,25.86-68.86-2.31.95-6.18-.89-8.48-2.15-2.69-1.47-5.07-3.46-7.18-5.67-4.58-5.98-8.47-10.94-16.02-12.8-2.96-1.55-4.68-4.72-5.32-7.89v-2.65Z"/>
  <path d="M107.61,299.62v.38h-2.65v-.38c.61.09,2.04.09,2.65,0Z"/>
  <path d="M197.99,218.58c-.58.46-3.1,3.48-3.61,3.02l-3.69-12.25c3.66-5.17,8.48-10.16,11.46-15.77,11.79-22.17-20.48-31.8-27.92-12-2.96,7.87.95,14.75,2.28,22.33-6.88,8.16-16.16,15.49-18.77,26.33-4.51,18.73,11.08,31.76,28.18,21.73,2.07-1.21,3.85-2.87,5.8-4.23,1.52,9.84,14.67,10.8,11.49-1.07-.41-1.55-3.12-7.31-3.02-8.22.07-.64,6.39-8.65,7.39-10.65,4.61-9.17-.69-16.26-9.6-9.22ZM178.7,224.29c.4-.57,2.98-4.36,3.56-3.83l3,9.98c-9.06,8.24-13.79,4.15-6.55-6.15ZM186.05,194.33c-1.49-3.15-2.57-12.67,3.04-11.96,6.6.84-.13,10.3-3.04,11.96Z"/>
</svg>