<?xml version="1.0" encoding="UTF-8"?>
<svg id="_레이어_1" data-name="레이어 1" xmlns="http://www.w3.org/2000/svg" viewBox="0 0 300.37 300">
  <path d="M158.88,0c109.15,6.98,176.1,125.2,122.83,222.42-56.09,102.36-204.53,103.81-262.02,2.04C-35.11,127.46,30.62,6.96,141.15,0h17.73ZM156.15,24.51C75.54,21.03,13.43,91.28,26.14,171.04c16.46,103.31,147.98,141.23,217.94,62.82,21.85-24.49,32.89-56.68,32.06-89.52h-89.99v11.57h77.72c-2.1,51.48-41.34,96.38-91.9,106.02-84.62,16.12-155.62-62.94-130.69-145.5,14.93-49.45,63.16-82.81,114.87-80.35v-11.57ZM102.07,84.01c-24.28.34-22.83,36.79.46,36.24,23.83-.56,23.02-36.57-.46-36.24ZM156.15,84.43h-12.27v131.41h42.27v-11.57h-30v-119.83Z"/>
</svg>