<?xml version="1.0" encoding="UTF-8"?>
<svg id="_레이어_1" data-name="레이어 1" xmlns="http://www.w3.org/2000/svg" viewBox="0 0 839.86 300">
  <path d="M486.16,300c-35.99-3.82-28.95-35.73-7.75-54.54,10.5-9.32,25.02-16.81,37.9-22.29,6.48-2.76,26.17-8.31,30.07-11.21,1.91-1.42,8.72-12.22,9.47-14.6.14-.44.24-1.4-.41-1.27-33.75,29.99-73.01,7.65-45.53-36,5.61-8.92,12.43-16.15,20.15-23.25-3.24-.19-6.57.3-9.8-.1-3.94-.49-12.14-4.76-15.17-2.93-1.43.86-4.34,12.54-5.36,15.26-8.59,22.7-23.07,50.23-44.81,62.63-17.84,10.17-41.2,10.39-48.34-12.18-7.61,6.48-14.13,12.92-23.67,16.74-20.82,8.34-42.15-.02-46.45-22.75-.98-.13-1.67,0-2.56.45-4.23,2.11-10.72,8.19-15.57,11.08-15.06,8.97-30.84,14.82-48.31,8.84-8.21-2.81-16.64-9.44-19.61-17.79-.91-.66-15.25,10.4-17.79,11.85-18.2,10.45-45.14,15.68-63.35,2.6-1.71-1.23-5.19-5.45-6.34-5.73-4.38-1.04-16.36,7.05-21.79-.55-7.1-9.94,8.53-16.9,16.26-18.58-2.52-31.54,19-65.07,47.98-77.07,14.99-6.21,34.56-7.49,37.78,12.72,3.72,23.38-15.45,42.66-32.55,55.2-3.59,2.63-9.07,5.09-12.13,7.47-2.25,1.75,2.48,4.69,4.03,5.39,13.35,6.04,35.18-6.37,44.29-16.25,4.47-48.67,49.39-128.9,98.75-142.76,35.38-9.93,27.99,19.02,18.33,39.77-17.11,36.72-48.34,70.27-76.27,99.06-1.66,15.27,13.68,16.97,25.25,13.18,4.44-1.46,20.27-11.73,22.26-15.57,1.99-3.83,3.76-15.84,5.43-21.21,13.73-44.1,59.33-120.56,104.96-136.56,33.61-11.78,25.98,23.05,18.72,41.87-16.82,43.6-57.81,82.67-90.31,115.11-2.68,20.29,15.29,27.87,29.73,14.22,3.78-25.88,22.57-52.84,45.52-65.35,7.16-3.9,21.35-9.7,28.71-4.57,10.1,7.04-4.77,14.03-9.31,17.93-10.46,9-30.07,35.11-28.81,49.24.53,6.01,5.51,8.42,11,6.83,11.19-3.25,23.41-29.5,27.05-39.98,2.85-8.2,4.1-20.63,10.53-26.42,13.06-11.78,23.67.51,37.87,1.7,21.24,1.78,30.34-9.47,47.54-13.49,5.82-1.36,15.75-.71,16.6,7.04.87,7.91-4.84,7.79-10.15,11.42-13.02,8.92-26.54,21.54-33.94,35.69-7.66,14.65-4.2,26.76,12.47,15.02,19.75-13.91,22.48-42.38,41.87-57.83,9.52-7.59,26.4-11.94,24.95,6.01-1.68,20.84-29.48,56.5-41.72,74.3-.48.7-2.33,1.67-.85,2.58,9.19-4.03,19.07-9.74,26.64-16.35,8.42-7.36,6.92-9.77,11.19-18.89,12.63-26.97,53.78-60.1,84.32-60.99,10.29-.3,18.34,7.56,8.49,14.5-6.21,4.38-17.59,7.89-25.16,12.67-11.75,7.41-29.25,22.73-33.39,36.24-4.12,13.47,5.27,15.08,15.17,9.13,18.7-11.24,29.84-52.95,51.39-54.4,8.35-.56,10.37,5.24,9.81,12.44-1.02,12.91-20.68,38.98-28.08,50.97-.46.74-2.17,1.88-.77,2.67,16.62-10.44,31.31-23.63,46.03-36.5,15.45-13.5,49.19-49.09,68.61-51.75,9.5-1.3,21.6.78,22.59,12.23,1.33,15.42-15.75,7.14-22,13.26-6.26,6.13-1.12,27.75-1.18,36.56-.1,15.23-5.85,35.64-18.12,45.52-15.23,12.25-47.19,15.28-59.23-2.73-4.01-6-3.55-12.3-4.01-19.17-15.38,11.32-30.76,22.73-47.47,32.06-18.14,31.48-45.67,85.67-89.33,81.29-12.99-1.3-21.99-10.27-21.07-23.6,1.8-26.14,39.22-44.52,59.9-54.42,8.62-4.13,22.88-7.43,27.67-15.32.47-.78,4.8-8.41,1.48-7.12-1.78.69-5.69,4.23-8.3,5.46-9.04,4.27-21.81,5.89-30.91,1.01-3.63-1.94-5.27-5.56-8.86-7.27-14.52,11.79-31.48,20.09-48.51,27.64-17.22,30.26-41.22,74.06-81.11,74.49h-2.58ZM377.76,136.83c15.83-16.28,30.23-34.18,42.51-53.32,4.56-7.1,10.16-15.76,13.56-23.4,10.48-23.53-2.1-13.91-11.78-3.17-19.41,21.54-35.17,52.58-44.29,79.88ZM287.42,143.7c13.47-12.99,25.75-28.76,35.63-44.73,4.37-7.07,9.94-16.36,12.96-23.99,7.26-18.31-3.6-11.75-11.62-3.01-17.04,18.57-28.63,48.26-36.97,71.73ZM191.05,166.88c10.18-2.62,31.12-24.26,29.09-34.56-.2-1.03-.79-2.08-1.56-2.81-4.82-2.91-13.93,6.47-16.71,9.97-5.96,7.5-10.39,17.78-10.82,27.41ZM752.02,173.75c4.86-.29,9.54.19,11.61,5.16,2.22,5.34-.21,13.48,9.41,10.25,15.34-5.15,19.38-39.37,20.26-53.2l-41.29,37.78ZM534.34,234.74c-11.22,2.79-45.46,21.12-44.71,33.86.53,9.05,13.23-.35,16.73-2.97,10.72-8.03,20.31-19.99,27.98-30.89ZM648.77,234.74c-11.18,2.62-42.24,22.91-42.06,34.79.03,2.15,1.39,4.01,3.7,3.86,3.7-.23,13.87-8.75,16.87-11.6,2.06-1.96,22.83-25.95,21.5-27.05Z"/>
  <path d="M135.12,127.39c1.9,5.12,5.39,8.65,6.83,14.21,2.67,10.32,1.67,19.34-.37,29.58-3.28,16.47-18.11,53.89-6.82,67.77,4.3,5.29,14.71,3.01,6.84,12.12-12.52,14.5-40.79,6.5-49.67-8.88-14.2-24.61,5.34-57.05,12.44-80.66,2.78-9.24,6.36-21.89-3.24-28.12-10.52,16.74-18.73,34.97-28.67,52.09-10.96,18.86-32.02,57.83-59.13,48.42-20.43-7.09-14.02-30.53-2.99-43.43,23.3-27.25,53.25-46.99,73.51-78.63,2.36-3.68,15.29-24.99,2.5-18.97-19.93,9.39-31.21,39.57-51.11,52.04-24.99,15.65-38.68-10.6-21.88-30.43,16.73-19.75,75.02-46.13,100.17-61.47,8.17-4.98,20.25-15.68,29.74-15.87,8.39-.17,11.4,4,8.37,11.85-2.74,7.11-15.41,22.69-20.33,30.37-7.75,12.07-15.33,24.24-22.86,36.44-.7,2.14,5.74.29,6.9.02,22.07-5.15,51.77-41.14,65.7-58.95,11.93-15.25,28.68-45.3,45.25-53.6,22.76-11.4,33.82,9.09,25.98,29.37-6.87,17.78-51.54,53.63-68.2,65.9-14.91,10.98-31.64,22.23-48.97,28.85Z"/>
  <path d="M765.56,56.31c19.17-3.25,25.4,14.44,18.73,29.85-4.21,9.72-23.01,27.24-34.24,23.87-7.29-2.19,2.84-11.09,3.89-13.81,2.66-6.92-5.18-9.58-6.67-15.19-2.81-10.58,8.4-23.05,18.3-24.72Z"/>
</svg>