<?xml version="1.0" encoding="UTF-8"?>
<svg id="_레이어_1" data-name="레이어 1" xmlns="http://www.w3.org/2000/svg" viewBox="0 0 429.43 300">
  <defs>
    <style>
      .cls-1 {
        fill: #fff;
        stroke: #000;
        stroke-miterlimit: 10;
        stroke-width: 1.72px;
      }
    </style>
  </defs>
  <g id="caMkw9.tif">
    <g>
      <path d="M40.61,89.12c.54,70.17.63,140.34.28,210.5,10.27-.37,20.63-.53,30.91.16.19.06.18.13,0,.21h-31.4l.21-210.88Z"/>
      <path d="M241.13,299.79c.19.06.18.13,0,.21h-35.22c-.19-.06-.18-.13,0-.21,11.72-.61,23.5-.64,35.22,0Z"/>
      <path d="M408.13,92.94c-.06.19-.13.18-.21,0-.6-4.49-.62-9.09,0-13.58.06-.19.13-.18.21,0v13.58Z"/>
      <path d="M359.75,299.79c.19.06.18.13,0,.21h-11.67c-.19-.06-.18-.13,0-.21,3.88-.52,7.79-.52,11.67,0Z"/>
      <path d="M375.87,299.79c.19.06.18.13,0,.21h-5.52c-.19-.06-.18-.13,0-.21,1.78-.62,3.73-.6,5.52,0Z"/>
      <path d="M337.47,299.79c.19.06.18.13,0,.21h-5.52c-.19-.06-.18-.13,0-.21,1.76-.62,3.76-.64,5.52,0Z"/>
      <path d="M370.36,299.79v.21h-5.3c-.19-.06-.18-.13,0-.21,1.76-.59,3.55-.58,5.3,0Z"/>
      <path d="M365.05,299.79v.21h-5.3v-.21c1.78-.53,3.53-.52,5.3,0Z"/>
      <path d="M348.08,299.79v.21h-5.3c-.19-.06-.18-.13,0-.21,1.78-.52,3.53-.53,5.3,0Z"/>
      <path d="M342.77,299.79v.21h-5.3v-.21c1.76-.58,3.55-.59,5.3,0Z"/>
      <path d="M380.54,299.79v.21h-4.67v-.21c1.31-.67,3.32-.61,4.67,0Z"/>
      <path d="M331.95,299.79v.21h-4.67v-.21c1.38-.62,3.32-.66,4.67,0Z"/>
      <path d="M85.6,299.79v.21h-4.03c-.19-.06-.18-.13,0-.21,1.12-.66,2.88-.62,4.03,0Z"/>
      <path d="M202.3,299.79c.19.06.18.13,0,.21h-4.03c-.19-.06-.18-.13,0-.21,1.33-.57,2.7-.59,4.03,0Z"/>
      <path d="M248.77,299.79c.19.06.18.13,0,.21h-4.03c-.19-.06-.18-.13,0-.21,1.34-.42,2.69-.42,4.03,0Z"/>
      <path d="M198.27,299.79v.21h-3.82c-.19-.06-.18-.13,0-.21,1.17-.61,2.67-.64,3.82,0Z"/>
      <path d="M252.59,299.79c.19.06.18.13,0,.21h-3.82v-.21c1.26-.58,2.56-.57,3.82,0Z"/>
      <path d="M205.91,299.79v.21h-3.61v-.21c1.22-.52,2.39-.53,3.61,0Z"/>
      <path d="M244.74,299.79v.21h-3.61v-.21c1.2-.42,2.41-.42,3.61,0Z"/>
      <path d="M81.56,299.79v.21h-3.4c-.19-.06-.18-.13,0-.21,1.11-.59,2.28-.57,3.4,0Z"/>
      <path d="M408.13,99.52h-.21c-.62-.97-.64-2.45,0-3.39.06-.19.13-.18.21,0v3.39Z"/>
      <path d="M78.17,299.79v.21h-3.18c-.19-.06-.18-.13,0-.21,1.07-.53,2.11-.52,3.18,0Z"/>
      <path d="M408.13,96.12h-.21c-.6-.99-.62-2.19,0-3.18h.21v3.18Z"/>
      <path d="M74.99,299.79v.21h-3.18v-.21c1.07-.53,2.11-.52,3.18,0Z"/>
      <path d="M408.13,79.36h-.21c-.53-.93-.52-1.82,0-2.76.06-.19.13-.18.21,0v2.76Z"/>
      <path d="M194.45,299.79v.21h-2.55v-.21c.61-.61,1.96-.65,2.55,0Z"/>
      <path d="M255.14,299.79v.21h-2.55v-.21c.71-.62,1.83-.6,2.55,0Z"/>
      <path d="M408.13,76.61h-.21c-.53-.79-.53-1.54,0-2.33h.21v2.33Z"/>
      <path d="M40.61,89.12c.01-23.65,0-47.32,0-70.97.73-6.1,3.38-11.37,8.64-14.69,4.98-3.14,9.34-2.89,15.02-3.02,6.57-.14,13.19.3,19.73-.21,6.16.56,13.53-.71,19.54,0,.21.03.73.1.73.33v150.1l7.21-8.49c2.63-2.78,6.45-4.67,9.92-6.34,3.11-1.5,6.32-2.76,9.61-3.81,2.66-.84,9.11-2.86,11.53-2.55.26.03.52.1.77.17.33-.15.68-.22,1.06-.21.71-.7,1.73-.78,2.55-.21l1.49-.21c4.88-.71,9.96-.84,14.85-.21,1.34-.16,2.7-.21,4.03,0,4.66-.18,9.34-.17,14,0,5.3-.12,10.63-.13,15.93-.02.35,0,.7.11,1.04.23l-40.29,50.13,98.01,120.54c-.13.21-.6.1-.85.1-.84.03-1.7,0-2.55,0-1.27.01-2.55,0-3.82,0-1.34,0-2.69,0-4.03,0-1.2,0-2.41,0-3.61,0-11.74.01-23.49.05-35.22,0-1.2,0-2.41,0-3.61,0-1.34,0-2.69.01-4.03,0-1.27-.01-2.55.03-3.82,0-.84-.02-1.7.04-2.55,0-7.03-.35-13.62-3.87-18.57-8.7l-69.06-84.65-.2,76.07c-1.18,9.99-8.35,16.96-18.47,17.28-1.34.04-2.69-.01-4.03,0-1.13.01-2.27,0-3.4,0-1.06,0-2.12,0-3.18,0-1.06,0-2.12,0-3.18,0-10.39.04-20.8-.03-31.19,0,.03-70.22-.04-140.45,0-210.67Z"/>
      <path d="M335.98.44c.09,24.77.09,49.52,0,74.25-20.69.22-42.48.17-63.23,0-.07-1.46-.14-2.95-.21-4.46.05-10.01-.01-20.05,0-30.01.02-7.06-.52-15.15,0-22.07.68-9.17,8.01-17.01,17.29-17.71,10.55-.8,22.76.12,33.53,0,3.9-.04,7.96-.52,11.89-.23.26.02.58-.07.72.22Z"/>
      <path d="M335.98.44l.2,74.13.86.33c-22.91.08-45.84-.04-68.75,0,.57-.53,4.04,0,4.24-.21,0-1.48,0-2.97,0-4.46.49,1.36.08,3.02.21,4.46h63.23V.44Z"/>
      <path d="M272.54,190.32c-.01-20.42-.02-40.86.03-61.28.15-.03.42-.25.5-.25h62.91c.07,18.78-.09,37.57-.02,56.35,0,.39.23.68.23.72.06,14.96-.04,29.92-.01,44.88.65,6.56,3.83,11.93,9.91,14.7.76.35,3.78,1.52,4.43,1.52h47.96c.18,0,.38.51.33.73l-.22,35.87c-1.53,9.26-8.59,15.87-18.04,16.22-1.55.06-3.12-.02-4.67,0-1.84.02-3.68,0-5.52,0-1.77,0-3.54,0-5.3,0s-3.54,0-5.3,0c-3.89,0-7.78.01-11.67,0-1.77,0-3.54,0-5.3,0s-3.54.01-5.3,0-3.68.02-5.52,0c-1.55-.02-3.12.04-4.67,0-30.72-.85-53.45-23.51-54.76-54.19-.77-18.01.02-37.14.01-55.28Z"/>
      <path d="M247.71,128.79c-16.47-.01-33.02.2-49.44.21-5.55,0-11.33-.22-16.98-.21-.19-.06-.18-.13,0-.21,21.74,0,43.52-.27,65.25,0,.36,0,.94-.14,1.16.22Z"/>
      <path d="M181.29,128.58v.21c-4.66,0-9.34-.02-14,0-.19-.06-.18-.13,0-.21,4.66,0,9.34,0,14,0Z"/>
      <path d="M167.29,128.58v.21c-1.34,0-2.69,0-4.03,0,1.2-.39,2.75-.21,4.03-.21Z"/>
      <path d="M148.4,129.01c-.3.38-1.02.19-1.49.21.29-.37,1.02-.21,1.49-.21Z"/>
      <path d="M144.37,129.43c-.24.03-.67.16-1.06.21.18-.34.72-.2,1.06-.21Z"/>
    </g>
  </g>
  <path class="cls-1" d="M407.91,74.27c0,.78,0,1.56,0,2.33,0,.92,0,1.84,0,2.76.02,4.52.04,9.06,0,13.58,0,1.06.01,2.12,0,3.18-.01,1.13.03,2.27,0,3.39-.82,27.58-35.54,29-56.12,29.29-5.2.07-10.41-.07-15.61,0v57.07c-.48.34-.65-.24-.65-.7-.01-16.11-.02-32.21.03-48.32,0-1.34.07-2.68.14-4.02.07-1.34.16-2.68.27-4.02l-.2.42h-62.45l-.26-.42c.05,19.89-.12,40.39-.53,61.52l-.21-61.52c-8.2,0-16.41,0-24.62,0-21.83-.04-43.97-.11-66.42-.21-4.67.17-9.34.15-14,0-1.33.06-2.67.13-4.03.21-4.95.03-9.9.17-14.85.21l-1.49.21c-.86.04-1.7.11-2.55.21-.38-.01-.73.06-1.06.21-11.4,1.63-22.47,5.85-31.83,12.52l.85-1.59c13.55-15.26,25.52-32.76,39.14-47.85,9.52-10.54,22.67-16.75,36.92-17.61,26.64.04,53.27-.15,79.9-.2,22.92-.19,45.84-.14,68.75,0,20.21-.07,52.77,1.91,68.11-13.48.83-.83,1.64-1.7,2.55-2.43.09,5.09.18,10.18.21,15.27Z"/>
</svg>