<?xml version="1.0" encoding="UTF-8"?>
<svg id="_레이어_1" data-name="레이어 1" xmlns="http://www.w3.org/2000/svg" viewBox="0 0 1561.97 300">
  <path d="M0,300V.71h91.46c38.09,52.25,73.24,106.8,112.14,158.36V.71h97.03v299.29h-93.85l-5.02-1.77c-33.6-48.76-67.2-97.56-100.81-146.42l-.73,146.28-3.19,1.91H0Z"/>
  <path d="M994.12,300V.71h233.82v72.05c0,.17-2.22,2.38-2.39,2.38h-136v39.59h136.79v70.47c0,.17-2.22,2.38-2.39,2.38h-134.41v39.59h141.56v72.84h-237Z"/>
  <polygon points="738.04 300 621.92 .71 722.13 .71 792.9 195.5 862.1 .71 962.31 .71 846.2 300 738.04 300"/>
  <path d="M1487.22,197.85c29.06-10.11,50.45-30.72,58.06-60.95,17.01-67.62-19.04-116.85-85.09-130.67-57.94-12.13-123.8-2.22-182.94-5.53v299.3h93.85c3.3-2.23,4.36-6.78,3.18-13.66.67-20.79.96-44.55.07-65.4,5.39.47,26.33.39,29.46-.11l-.08.17c17.56,25.61,35.12,51.22,52.68,76.83l5.34,2.18h100.21l-74.75-102.15ZM1437.72,135.92c-1.17.66-8.09,4.14-8.57,4.14h-59.65v-60.97c0-.17,2.22-2.38,2.39-2.38h54.08c.85,0,7.77,2.7,9.29,3.42,22.37,10.71,24.31,43.42,2.46,55.78Z"/>
  <path d="M555.18,1.44l-101.15-.82-4.73,1.62-116.86,297.76h100.21l3.74-1.1c3.88-12.16,8.17-23.97,12.88-35.41l106.75.32c5.03,11.39,9.32,23.07,12.85,35.05l3.76,1.14h100.21L555.18,1.44ZM469.23,189.15l32.62-91.86,34.18,91.86h-66.81Z"/>
</svg>