<?xml version="1.0" encoding="UTF-8"?>
<svg id="_레이어_1" data-name="레이어 1" xmlns="http://www.w3.org/2000/svg" viewBox="0 0 391.59 300">
  <path d="M342.53,41.62c-2.65-4.36-6.42-11.21-9.55-14.92-2.61-3.1-14.86-7.71-19.32-9.44-19.49-7.57-39.79-12.64-60.17-17.26h-2.45l-1.8.84-9.74,19.26c-28.47-4.95-56.97-4.13-85.52-.41-.74.1-1.29.25-1.64.37L142.62.84l-1.8-.84h-1.84c-26.78,2.96-54.56,12.45-80.41,24.62C25.42,75.32.33,134.92.61,196.23c-.49.91-.47,2.14,0,3.06-.48.95-.47,2.1,0,3.06-.45,1.21-.45,2.45,0,3.67-.17,1.59-.37,3.22-.61,4.89v7.95c.25,2.13.45,4.16.61,6.11-.47,1.59-.48,3.3,0,4.89-.48,1.3-.51,2.94,0,4.28.1,3.05.25,14.01,1.58,15.85,29.34,21.86,62.35,38.69,97.38,49.56.53.1.97-.07,1.44-.29,1.13-.52,8.53-12.01,9.83-14.06,3.98-6.32,7.55-12.92,11-19.54l-32.76-16.23c-.64-.53.4-.81.72-1.13.7-.69,6.8-5.36,7.25-5.39,37.97,17.64,80.57,25.49,122.45,21.18,26.08-2.68,51.61-10.27,75.31-21.17.45.03,6.55,4.7,7.25,5.39.33.32,1.36.59.72,1.13l-32.75,16.23c5.76,12.17,13.03,23.6,21.08,34.36,35.3-10.99,68.55-27.86,98.29-49.69,1.86-2.26,1.65-17.03,1.82-20.8,3.1-67.02-14.01-130.85-48.7-187.9ZM153.47,195.4c-23.25,21.75-55.65,2-57.87-27.07-2.16-28.19,24.66-54.63,51.99-38.45,22.34,13.23,24.43,48.18,5.89,65.52ZM265.98,204.11c-49.21,5.45-53.16-73.37-9.56-78.62,48.88-5.88,52.33,73.88,9.56,78.62Z"/>
</svg>