<?xml version="1.0" encoding="UTF-8"?>
<svg id="_레이어_1" data-name="레이어 1" xmlns="http://www.w3.org/2000/svg" viewBox="0 0 1114.66 300">
  <polygon points="43.97 0 104.74 168.13 106.03 0 152.59 0 152.22 281.53 101.16 286.75 46.55 134.48 46.55 294.83 0 300 0 0 43.97 0"/>
  <polygon points="1000.86 0 1033.19 80.2 1065.52 0 1114.66 0 1057.85 143.8 1114.64 299.99 1064.2 292.27 1031.86 206.92 995.72 283.2 946.55 279.28 1005.76 140.89 951.72 0 1000.86 0"/>
  <path d="M328.45,0v46.55h-82.76v64.66h64.66c-1.95,14.65,4.45,34.43-3.88,46.55h-60.78v69.83l82.76-5.17v46.55l-129.3,10.33L201.72,0h126.72Z"/>
  <polygon points="667.24 0 667.24 46.55 581.9 46.55 581.9 108.62 646.55 108.62 646.55 155.17 581.9 155.17 581.9 261.21 535.34 261.21 537.93 0 667.24 0"/>
  <polygon points="504.31 0 504.31 46.55 459.05 46.55 455.17 50.43 455.17 263.79 408.62 263.79 408.62 46.55 362.07 46.55 362.07 0 504.31 0"/>
  <polygon points="742.24 0 744.97 219.7 825 225 825 267.67 819.17 271.06 698.29 263.77 698.28 0 742.24 0"/>
  <path d="M910.34,0v276.74c-15.66,1.06-30.74-4.41-46.56-2.58L866.38,0h43.97Z"/>
</svg>