<?xml version="1.0" encoding="UTF-8"?>
<svg id="_레이어_1" data-name="레이어 1" xmlns="http://www.w3.org/2000/svg" viewBox="0 0 669.18 151.67">
  <polygon points="142.22 151.25 121.44 151.29 121.41 73.38 105.39 73.37 105.74 151.28 82.89 151.27 82.89 .02 105.42 0 105.41 49.95 121.41 49.94 121.42 .02 142.22 .02 142.22 151.25"/>
  <polygon points="276.59 151.66 168.99 151.67 168.77 111.12 251.65 111.13 251.64 103.06 168.83 103.05 168.8 88.6 276.57 88.6 276.59 127.24 191.66 127.24 191.58 135.22 276.56 135.24 276.59 151.66"/>
  <path d="M604.04,33.92c-7.34,7.87-15.49,13.05-25.11,17.81-9.91,4.76-20.08,8.35-31.13,10.95l-.05-15.46c10.96-3.4,20.93-8.61,29.48-15.92,2.6-2.53,5.21-4.87,6.47-8.42l-36.74-.03V4.44s113.71,0,113.71,0v18.41s-37.76.04-37.76.04c4.57,6.77,10.73,11.91,17.78,15.88,6.07,3.37,12.37,5.65,19.19,7.53l.02,14.02c-7.32-.75-14.24-2.08-21.22-4.34-13.22-4.23-24.86-11.47-34.64-22.06Z"/>
  <polygon points="181.41 59.3 237.87 59.34 237.88 78.06 158.65 78.06 158.64 9.61 234.06 9.6 234.05 30.48 181.43 30.47 181.41 59.3"/>
  <path d="M631.56,151.69c4.89-9.68,7.68-20.08,7.62-31.27h-92.94s-.01-20.97-.01-20.97h115.24s.05,21.21.05,21.21c-.11,10.83-2.56,21.24-7.43,31.06l-22.53-.03Z"/>
  <polygon points="669.17 89.63 538.55 89.64 538.54 69.17 591.57 69.15 591.6 53.72 616.51 53.69 616.55 69.16 669.18 69.17 669.17 89.63"/>
  <path d="M357.84,135.31c-18.08,7.37-39.8,8.95-59.19,9l-.04-17.45c6.19.41,11.92.47,18.15.17,18.26-1.08,36.14-4.75,53.49-10.81V49.83s19.19,0,19.19,0v99.36s-18.94.01-18.94.01l-.11-21.47c-3.94,3.32-7.9,5.6-12.55,7.58Z"/>
  <polygon points="527.39 130.15 527.47 151.66 419.76 151.67 419.73 100.9 442.34 100.9 442.35 130.17 527.39 130.15"/>
  <polygon points="525.64 97.82 502.22 97.89 502.22 .65 525.64 .64 525.64 97.82"/>
  <polygon points="293.73 54.65 277.18 54.76 277.11 82.65 254.35 82.65 254.35 .67 277.13 .64 277.14 31.9 293.7 31.99 293.73 54.65"/>
  <path d="M46.09,14.63v27.24s-24.48,0-24.48,0l-.03-27.25H0s.02,105.56.02,105.56h68.2s.02-105.57.02-105.57l-22.15.02ZM21.6,97.94v-32.09s24.48,0,24.48,0l.02,32.05-24.51.05Z"/>
  <path d="M482.78,9.99h-76.45s0,73.78,0,73.78l76.47-.02-.02-73.76ZM428.16,63.14V30.87s32.82,0,32.82,0v32.21s-32.82.07-32.82.07Z"/>
  <path d="M355.32,72.13c-.22-9.16-7.28-16.53-16.42-16.53h-19.01c-9.29,0-16.95,7.59-16.96,16.84v19.94c-.02,8.98,8.78,15.68,17.4,15.69h16.85c9.51.02,17.81-5.96,18.11-16.01.2-6.73.19-13.19.02-19.94ZM332.77,94.4c-2.49.08-4.57.14-6.91-.02-3.39-.23-6.89-2.86-7.11-6.42-.25-4.17-.27-8.17,0-12.33.24-3.5,3.77-6.07,7.11-6.31,2.45-.18,4.64-.13,7.02-.02,3.89.18,6.79,3.39,6.79,7.21v10.5c0,3.86-2.8,7.24-6.9,7.37Z"/>
</svg>