<?xml version="1.0" encoding="UTF-8"?>
<svg id="_레이어_1" data-name="레이어 1" xmlns="http://www.w3.org/2000/svg" viewBox="0 0 630.87 300">
  <path d="M579.36,299.99c-22.13-1.05-41.83-13.71-52.85-32.78l-63.12-104.43-.11,86.85c-2.93,60.91-76.81,65.1-103.63,18.57l-63.49-105.41c-.4-.07-.23.33-.24.61-1.27,24.72.84,50.53.01,75.4-1.12,33.63-18.64,55.69-53.36,57.52-53.93-2.22-110.63,8.07-160.92-15.81C-28.66,228.1-27.41,60.65,86.69,13.62c18.85-7.77,39.13-11.48,59.5-12.46h54.36v35.98h-56.82c-68.04.98-114.84,58.71-107.29,125.48,6.59,58.33,50.92,94.46,108.3,96.96,31.55,1.37,63.73-.49,95.37.25,10.19-.93,18.47-9.12,19.36-19.32l-.02-182.56c.38-7.81,7.5-10.66,12.34-3.94,41.08,66.56,82.34,133.04,124.08,199.18,11.99,13.78,30,6.25,31.18-11.46V57.45c.63-7.99,8.1-9.68,12.33-3.2l123.02,197.78c11.1,14.98,31.14,8.42,32.49-9.82V1.17s35.99,0,35.99,0v247.58l-1.1,9.37c-3.86,22-19.49,38.38-41.94,41.34l-5.51.53c-.98-.03-1.98.05-2.96,0Z"/>
  <path d="M200.54,84.68h-55.09c-49.94.83-79.97,59.33-51.09,100.34,24.97,35.46,70.79,25.96,108.27,27.26,4.96-.62,8.42-4.55,8.76-9.47l-.02-150.78c2.12-42.94,46.93-66.83,83.39-41.95,10.53,7.19,18.68,17.49,25.01,28.46l59.08,101.81.12-88.31c2.41-44.49,49.27-67.58,85.75-40.14,9.78,7.36,16.47,16.69,22.74,27.03,19.87,32.79,38.12,66.62,58.08,99.36.43.7.83,1.64,1.52,2.05V1.17h35.98v240.31c0,.81-.74,3.24-1.13,4.04-2.21,4.46-6.93,3.43-9.57,0l-124.73-200.01c-11.44-13.49-31.02-6.39-32.41,10.72v184.27c-.4,6.01-3.55,10.76-9.5,6.04-41.99-66.31-83.21-133.17-124.62-199.87-11.36-14.88-32.17-8.52-33.47,10.3v182.55c-.48,4.59-4.15,8.1-8.74,8.5-30.99-.76-62.51,1.1-93.41-.27-49.35-2.17-88.02-31.11-96.42-80.99-10.37-61.6,32.31-117.31,95.66-117.81h55.84v35.73Z"/>
</svg>