<?xml version="1.0" encoding="UTF-8"?>
<svg id="_레이어_1" data-name="레이어 1" xmlns="http://www.w3.org/2000/svg" viewBox="0 0 300.64 300">
  <path d="M106.39,293.68c5.06-10.63,11.43-20.24,15.52-31.42,5.05-13.78,6.88-28.94,12.65-42.22,29.86,32.01,76.9,10.7,96.68-21.81,31.33-51.5,14.05-119.99-46.09-138.59-65.79-20.35-138.32,22.41-130.58,95.91,1.89,17.99,15.18,46.25,34.45,49.99l5.22-20.96c-40.69-58.39,23.54-125.61,85.38-96.29,54.03,25.63,33.97,127.97-17.42,122.91-38.06-3.75-8.38-52.56-6.84-72.99,2.28-30.32-30.35-33.57-42.31-9.06-4.33,8.87-4.78,21-3.59,30.76.52,4.29,3.8,10.03,3.78,12.89-.14,16.66-14.75,54.68-17.99,74.34-2.41,14.61-2.05,27.56-.41,42.22C48.4,271.48,12.32,228.81,3.05,179.62-28.87,10.33,198.74-69.51,280.5,75.52c67.21,119.23-44.74,255.62-174.11,218.16Z"/>
</svg>