<?xml version="1.0" encoding="UTF-8"?>
<svg id="_레이어_1" data-name="레이어 1" xmlns="http://www.w3.org/2000/svg" viewBox="0 0 300.87 300">
  <path d="M153.44,0h-7.03C31.73,2.35-38.07,130.8,22.07,228.73c55.37,90.18,186.58,95.95,249.29,10.63C344.05,140.46,273.95,3.52,153.44,0ZM153.88,273.44c-42.78,6.47-91.06-19.5-105.66-60.79-1.51-4.26-6.81-23.02-.6-24.16,6.03-1.11,19.4,27.09,27.02,26.91,3.06-.07,8.11-15.44,11.86-18.69,2.5-2.16,6.06-3.93,8.58-.75,4.57,5.78,4.22,30.93,8.81,32.35,5.35,1.66,29.39-12.83,35-7.92,2.34,2.8.38,6.24-.77,9.3-2.09,5.55-12.05,18.06-10.67,22.1,2.04,6.01,26.83,11.06,30.02,14.17,3.1,3.03.44,6.87-3.6,7.48ZM220.2,253.44c-3.47,2.98-17.76,12.83-21.56,13.63-1.96.41-5.08-.75-5.06-3.05,20.32-25.18,9.12-45.47-14.5-61.67-42.28-29-128.08-54.35-119.79-119.44,3.11-24.42,29.01-46.29,51.75-52.56,4.31-1.19,14.32-1.61,8.94,4.43-2.08,2.33-9.5,5.76-12.74,8.82-57.53,54.35,60.65,101.01,94.69,122.93,32.19,20.73,53.93,56.33,18.26,86.93ZM221.99,109.44c-10.67-4.37-13.24-29.73-25.64-26.09-10.14,2.97,2.64,18.29,3.23,23.45,1.68,14.65-16.06,19.89-27.01,12.87-12.19-7.82-13.22-26.03-12.08-39.01.85-9.64,5.7-18.25,2.21-28.29-1.42-4.09-10.99-13.37-8.83-16.36,2.44-3.38,22.22,3.6,27.2,4.05,10.67.95,19.02-1.02,30.06,2.08,7.26,2.04,26.04,11.67,23.25,21-2.85,9.53-18.31-5.56-21.6-.91-.87,10.23,14.03,10.2,20.9,13.52,20.42,9.88,2.97,39.71-11.7,33.7Z"/>
</svg>