<?xml version="1.0" encoding="UTF-8"?>
<svg id="_레이어_1" data-name="레이어 1" xmlns="http://www.w3.org/2000/svg" viewBox="0 0 971.99 300">
  <path d="M205.77,0c18.56,7.98,21.35,23.61,13.16,41.22-21.5,46.28-50.56-3.54-6.12-12.18l-.8-12.11c-34.78-9.31-77.29,35.12-99.01,59.86-51.93,59.14-136.08,217.84,13.19,203.47,74.25-7.15,152.42-52.85,229.03-23.52,21.32,8.16,44.74,24.55,60.35,40.87-34.15-14.82-78.61-26.72-108.34,2.4-21.39-29.89-56.29-31.67-90.59-29.31-59.37,4.09-177.66,64.02-209.68-14.56C-29.04,167.8,82.38,37.56,161.23,7.9l27.47-7.9h17.08Z"/>
  <path d="M900.37,43.23c-1.86,1.47-6.43,1.39-9.05,3.12,23.96-50.42-6.17-28.05-28.14-7.38-25.94,24.4-53.78,62.75-72.92,92.97-10.34,16.33-20.1,33.48-28.25,51.01,2.15,2.2,22.56-14.6,25.54-17.13,27.38-23.3,53.23-51.25,74.97-79.9l9.24.66c-20.15,27.05-44.29,54.43-69.45,76.93-12.44,11.12-43.88,30.46-51.75,39.72-5.84,6.87-28.55,65.22-16.34,67.74,3.74.56,6.46-.9,9.65-2.46,15.1-7.39,51.5-70.14,68.09-88.03,16.28-17.55,49.81-47.07,70.79-21.96,5.04-13.18,21.07-5.35,32.92-7.26l-65.79,115.9c.63,10.24,23.41-9.43,25.3-11.26,7.03-6.8,19.29-27.93,24.47-31.64,2.77-1.98,8.61-4.11,11.14-1.06-14.81,17.71-27.82,39.49-45.19,54.83-9.52,8.4-37.97,29.8-47.65,13.64-3.46-5.78-.26-18.41-5.92-15.99-19.21,23.21-57.24,36.7-53.69-7.33-11.4,12.32-39.27,40.36-56.04,24.3-16.86-16.15,4.97-56.4,7.2-75.58-4.11,1.89-15.38,1.39-17.8,2.94-1.68,1.08-16.16,27.67-21.17,33.72-12.46,15.05-56.65,59.45-76.1,38.23-22.71-24.77,24.13-93.78,43.02-112.79,45.13-45.42,97.1-46.2,61.12,30.6,4.79.25,9.57.29,14.05-1.78,4.85-2.24,30.05-51.64,36.16-61.42,24.89-39.88,62.59-85.81,98.57-116.11,11.14-9.39,60.75-45.47,61.25-12.21.07,4.87-5.03,22.46-8.23,24.98ZM690.95,207.06c5.69-9.07,19.68-44.46,1.42-46.11-27.07-2.45-35.29,48.87-1.42,46.11ZM876.64,163.46c-5.01-.23-9.68-.63-14.53,1.3-16.76,6.66-77.95,91.66-65.96,103.59,4.16.21,8.29.25,12.32-1.11,10.06-3.39,35.42-44.06,42.36-55.22,3.56-5.72,28.54-45.98,25.81-48.57ZM654.7,195.18c-4.75,12.51-15.16,22.01-20.88,34.03-4.94,10.38-15.21,32.09-1.81,38.73,17.62,5.17,44.62-35.72,51.68-49.66-4.04-4.48-9.83-5.49-14.48-9.62-3.43-3.05-10.71-16.12-14.5-13.49Z"/>
  <path d="M217.97,129.27c14.19,10.12,65.17-59.04,96.13-56.05,34.45,3.33,13.67,55.82-4.31,55.46-13.41-.27-6.89-17.9-.5-23.94,5.78-5.47,11.21-3.38,15.89-8.58l-2.66-8c-17.78-11.37-59.08,48.11-65.93,61.47-7.34,14.32-26.14,58.69,5.9,52.41,29.02-5.68,73.06-77.02,96-99.32,15.99-15.55,45.28-42.05,65.63-19.77,3.85-10.1,22.8-2.75,32.92-4.85l-65.76,111.11-.1,5.95c4.98,5.14,27.78-19.13,31.77-23.1,7.2-7.16,13.9-24.68,26.76-19.59-17.54,19.16-51.42,67.3-77.94,70.94-13.79,1.89-18.65-8.93-17.21-20.91-26.49,25.34-67.29,36.23-53.67-17.08-17.45,18.18-65.84,58.79-87.49,27.75-15.39-22.06,5.3-53.29,13.09-74.12-4.27.39-11.8.75-15.12,3.19-4.76,3.5-22.48,35.63-30.07,44.33-13.13,15.06-59.7,56.71-75.24,26.59-19.32-37.46,44.27-115.28,76.96-132.21,45.63-23.63,55.06,12.86,34.94,48.34ZM202.67,88.25c-8.19,1.75-18.99,14.1-18.99,22.75,0,12.58,20.14,27.05,26.49,16.58,7.12-11.75,16.34-44.42-7.5-39.33ZM407.57,88.23c-11.63,2.37-44.51,46.1-52.09,57.82-5.05,7.81-36.52,57.19-8.09,48.07,20.47-6.57,55.82-81.6,70.41-100.48-.16-6.11-5.31-6.41-10.23-5.41ZM200.79,139.17c-6.02-1.98-14.39-4.95-19.34-8.73-3.07-2.35-6.94-11.81-9.85-9.72-9.42,14.77-21.22,29.51-26.91,46.29-7.87,23.2-.62,37.32,22.11,19.68,6.83-5.3,38.08-41.68,33.99-47.52Z"/>
  <path d="M693.96,19.78c2.84,30.67-18.99,71.38-43.02,89.94-26.97,20.82-51.35,12.93-38.21-23.57,10.88-30.25,39.1-51.87,63.88-70.3-8.81-3.74-17.89.11-26.02,3.25-61.39,23.74-164.57,159.35-161.89,225.95,1.47,36.59,32.68,35.66,56.98,18.01,25.43-18.47,59.86-66.61,50.09-99.26-15.67-3.76-26.54,8.17-33.38,20.82-3.53,6.52-7.18,23.14-10.2,26.4-6.64,7.19-31.67,16.87-39,28.06,4.02-32.86,26.29-80.08,60.89-89.11,54.27-14.17,26.27,58.71,11.79,82.53-20.84,34.29-79.52,87-120.26,55.36-40.79-31.68-1.69-112.04,19.71-146.15,31.28-49.86,124.71-151.15,189.52-138.7,5.8,1.11,11.35,6.4,15.15,6.57,4.62.21,19.49-6.03,27.18-6.84,42.92-4.51,71.39,18.95,105.77,39.95-6.53,4.69-17,21.69-25.01,20.44-7.56-1.18-35.42-23.17-44.94-28.5-17.31-9.7-39.09-21.66-59.02-14.85ZM686.36,24.41c-19.99,4.43-40.38,25.15-52.23,41.67-33.22,46.3-10.16,65.13,25.33,22.89,14.32-17.03,26.21-41.91,26.89-64.56Z"/>
  <path d="M840.07,78.04l19.54-23.12c43.44-.38,80.43-19.54,112.17-47.6,2.77,3.11-21.66,30.54-25.53,34.21-26.49,25.11-69.49,45.73-106.17,36.51Z"/>
  <polygon points="508.28 78.09 493.68 101.28 464.37 102.44 478.97 79.25 508.28 78.09"/>
</svg>