<?xml version="1.0" encoding="UTF-8"?>
<svg id="_레이어_1" data-name="레이어 1" xmlns="http://www.w3.org/2000/svg" viewBox="0 0 999.97 197.05">
  <g id="pdEkVR.tif">
    <g>
      <path d="M1.15,158.8v-1l47.81-38.91.41,20.42,62.58.5c3.69.03,6.45-2.76,6.8-5.61s-.79-5.77-3.48-7.55c-8.09-5.35-16.99-8.7-25.83-12.89-21.95-10.39-41.45-19.94-43.44-46.47-2.32-30.85,24.31-47.8,52.22-47.37l58.02.9-.1,37.64-58.64-.89c-3.38.63-5.87,2.43-6.24,5.29-.35,2.7.66,5.23,3.25,6.92,13.79,8.95,32.41,14.08,51.66,27.03,12.35,8.31,18.05,20.46,18.3,35.08.35,20.63-11.45,37.43-31.65,42.82-8.38,2.23-16.75,2.71-25.83,2.67l-57.66-.26-.43,19.93L1.15,158.8Z"/>
      <path d="M600.53,132.42l.37-112.07,46.19-.1-.16,113.14c-.03,19.24-12.06,34.99-29.46,42.13-19.72,8.1-48.87,6.42-66.12-7.43-8.53,6.44-17.98,10.47-28.71,11.65-32.76,3.58-64.66-9.38-66.68-45.95l-.07-113.45,46.28-.05.09,111.66c1.08,6.8,7.18,8.65,13.35,8.54,5.83-.11,11.11-1.79,12.7-8.01l.11-112.16h46.2s.03,111.39.03,111.39c1.07,6.63,6.45,8.92,13.1,8.76,4.46-.11,12.74-1.24,12.76-8.04Z"/>
      <path d="M840.61,132.2c-22.7-6.43-39.87-20.87-40.37-45.08V20.31s45.82.02,45.82.02l.08,61.86c-.09,5.09,2.82,8.78,7.16,11.06,6.78,2.22,14.25,2.55,20.99-.11,4.63-1.83,7.37-6.02,7.42-10.93l.31-30.83c.18-18.21,14.45-31.4,32.56-31.59l37.33-.39.6-19.4,47.47,39.25-47.43,39.01-.71-19.59-20.25.14c-2.08.01-3.94,1.39-3.94,3.56l-.06,24.78c-.06,24.11-18,39.01-39.92,45.05l-.16,45.5h-46.64s-.24-45.49-.24-45.49Z"/>
      <path d="M254.51,20.46l46.35-.21-.08,115.63c-5.8,44.86-63.05,52.9-98.33,38.68-17.48-7.04-28.87-21.97-29.6-40.66V20.31s46.31,0,46.31,0l.03,108.48c.14,4.68,2.31,8.33,6.35,10.33,10.05,4.97,27.64,3.13,28.95-9.66V20.46Z"/>
      <path d="M423.62,94.3c13.39-8.4,18.95-21.61,17.36-35.98-1.56-14.17-9.15-25.69-21.96-32.13-8.41-4.09-17.6-5.88-27.34-5.88l-76.09-.02v157.42s77.09-.01,77.09-.01c7.58,0,14.64-1.24,21.61-3.28,18.2-5.1,29.18-20.56,30.98-38.86,1.71-17.46-5.59-32.53-21.65-41.25ZM361.71,54.72l21.02-.16c7.65-.06,11.94,5.24,12.2,13.26.24,7.24-2.87,14.3-10.35,14.86-7.73.58-15.43.36-22.97-.03l.11-27.93ZM397.18,134.9c-1.81,5.25-6.4,7.72-11.5,7.7l-23.99-.08-.02-29.59,24.13-.09c5.6-.02,10.21,3.19,11.65,8.55,1.17,4.35,1.35,8.85-.26,13.52Z"/>
      <path d="M788.72,63.33c-.98-18.41-11.7-33.32-28.94-40.7-21.81-9.33-47.89-9.28-69.7.08-16.74,7.18-27.35,21.73-28.55,39.57l-.06,115.45,46.1-.04.16-45.45,34.85.06.26,45.41h45.92s-.04-114.38-.04-114.38ZM707.86,96.13c-.48-9.58-.19-18.98-.17-28.81.02-12.64,18.15-14.3,28.03-10.23,4.58,1.89,6.87,6.34,6.91,11.11v27.81s-34.77.12-34.77.12Z"/>
    </g>
  </g>
</svg>