<?xml version="1.0" encoding="UTF-8"?>
<svg id="_레이어_1" data-name="레이어 1" xmlns="http://www.w3.org/2000/svg" viewBox="0 0 343.3 300">
  <path d="M95.44,0h2.4c.77.29,1.63.29,2.4,0h.69c16.29,1.41,29.65,15.1,38.52,27.93,15,21.7,24.01,46.86,31.81,72.03l.41-.04c7.5-25.3,16.8-50.63,31.93-72.26,8.96-12.82,22.43-26.36,38.77-27.66h.69c.65.28,1.4.28,2.06,0h2.4c.65.28,1.4.28,2.06,0h.34c16.64.98,29.71,15.34,38.62,28.47,14.96,22.04,25.81,52.02,32.48,77.73,14.8,57.1,22.58,116.67,21.93,175.94.27.66.26,1.4,0,2.06.27,1.24.27,2.53,0,3.78.25,1.48.25,2.98,0,4.46.25.68.25,1.37,0,2.06.26.77.26,1.63,0,2.4.1.74.21,1.54.34,2.4v.69h-43.26c-.39-58.99-2.86-118.58-12.07-176.89-3.5-22.13-8.03-45.86-15.38-67-4.52-13-17.33-46.59-35.87-30.7-14.63,12.53-23.87,50.57-27.88,69.26-11.45,53.41-15.25,111.42-16.26,166.01-.11,6.01.11,12.03.01,18.03h-42.57c-.71-7.45-.18-15-.33-22.5-1.16-57.26-5.31-121.08-19.41-176.59-4.63-18.23-24.24-86.36-49.75-45.96-9.61,15.22-15.43,38.58-19.32,56.2-11.42,51.77-15.39,106.89-17.26,159.86-.55,15.55-1.52,31.82-1.06,47.37.02.58.77,2.9-.16,2.9H0c-.18-43.36,2.68-87.03,9.33-129.86,4.96-31.93,12.18-64.82,23.28-95.14C41.84,49.79,62.64,3.59,93.04,0h.34c.65.28,1.41.28,2.06,0Z"/>
</svg>