<?xml version="1.0" encoding="UTF-8"?>
<svg id="_레이어_1" data-name="레이어 1" xmlns="http://www.w3.org/2000/svg" viewBox="0 0 429.43 300">
  <g id="KpPJfU.tif">
    <path d="M168.66.7c60.95-1.14,128.16-1.62,188.58,4.57,54.01,5.54,62.8,27.71,68.49,77.99,5.41,47.81,5.99,122.07-5.78,168.57-12.03,47.55-67.77,43.7-107,45.63-69.25,3.42-142.11,3.6-211.28-.7-47.16-2.93-84.8-1.61-94.87-56.4C-2.04,192.21-1.43,129.24,3.87,80.53,8.73,35.95,15.89,13.27,64.27,6.72,97.9,2.16,134.63,1.34,168.66.7ZM172.89,213.67l111.76-63.68-111.76-63.68v127.36Z"/>
  </g>
</svg>