<?xml version="1.0" encoding="UTF-8"?>
<svg id="_레이어_1" data-name="레이어 1" xmlns="http://www.w3.org/2000/svg" viewBox="0 0 955.45 300">
  <path d="M799.95,139.26c-.76-.21-1.74-1.81-1.91-2.72-.34-1.79-.33-17.86.09-19.14.96-2.94,11.19.15,12.68-1.99.92-1.32.12-8.78.35-11.21,1.46-15.63,11.59-26.14,27.37-27.4,5.59-.45,18.7.21,23.76,2.35.56.24,1.36,1.55,1.36,1.91v19.27c0,2.65-12.95-1.22-15.05-1.21-10.41.03-12.58,8.17-11.97,17.01h39.77l27.8,70.15,25.48-70.15h24.71c1.11,0,1.44,2.77.63,3.7-15.23,34.14-25.64,72.29-41.28,106.02-8.33,17.96-17.4,25.28-38.14,23.65-3.33-.26-18.91-4.01-19.55-7.45-.19-1,7.52-17.9,8.38-18.44,1.3-.82,8.77,2.98,11.4,3.31,8.42,1.06,11.9-2.21,15.33-9.42l-32.13-78.25h-21.62v78.23c0,.08-1.08,1.16-1.16,1.16h-25.09v-79.39c-3.05-.54-8.56.74-11.2,0Z"/>
  <path d="M358.8,180.25c2.23-1.3,11.78,7.02,14.6,8.66,11.8,6.86,40.47,14.43,48.91-.38,6.38-11.17-2.77-18.02-12.28-21.54-22.23-8.23-56.14-8.33-59.64-39.12-6.07-53.25,67.39-57.52,96.18-28.19.32,1.64-11.76,16.71-13.47,19.49-13.32-8.16-28.63-17.24-44.92-12.49-11.8,3.44-16.7,16.57-5.83,23.98,20.53,14.01,64.86,7.28,68.2,44.46,4.61,51.38-60.12,53.85-93.35,33.06-1.74-1.09-12.09-8.35-12.38-9.29-.83-2.78,12.65-15.06,13.99-18.63Z"/>
  <path d="M723.89,116.13h25.87c.08,0,1.16,1.07,1.16,1.16v20.04c0,.14-1.79,1.93-1.93,1.93h-25.09v50.48c0,.88,2.1,4.65,3.1,5.38,4.24,3.09,10.63,1.67,15.31.66,2.18-.47,4.58-2,6.25-2.27.84-.14,1.6.52,1.6.85v20.04c0,1.28-6.21,3.6-7.55,4.02-14.69,4.66-35.45,3.11-42.24-12.9-.64-1.51-2.71-7.67-2.71-8.85v-57.42c-2.67-.35-10.98.98-12.42-1.28-1.79-2.83-.64-17.79.06-21.84h12.35v-26.59c0-.08,1.08-1.16,1.16-1.16h23.94c.08,0,1.16,1.07,1.16,1.16v26.59Z"/>
  <path d="M787.2,116.13v102.51h-25.09c-.08,0-1.16-1.07-1.16-1.16v-100.2c0-.08,1.08-1.16,1.16-1.16h25.09Z"/>
  <path d="M770.79,70.84c23.44-4.04,26.72,28.72,7.35,32-23.5,3.99-26.4-28.71-7.35-32Z"/>
  <path d="M150,0C67.16,0,0,67.16,0,150s67.16,150,150,150,150-67.16,150-150S232.84,0,150,0ZM219.68,215.95c-6.32,9.77-18.3-.98-25.73-4.38-29.25-13.37-62.56-15.52-94.23-11.31-6.25.83-22,5.24-26.8,4.19-7.93-1.74-9.63-12.66-2.68-16.66,6.48-3.73,34.26-6.95,42.72-7.46,29.3-1.75,57.79,1.23,84.84,12.74,8.07,3.44,29.2,11.55,21.87,22.87ZM236.65,177.4c-8.51,8.93-20.21-1.93-28.81-5.91-33.78-15.61-76.03-20.11-112.65-14.28-6.93,1.1-22.01,6.3-27.66,4.81-9.07-2.4-10.64-15.84-2.24-20.78,9.44-5.55,38.46-8.83,49.98-9.46,34.36-1.87,73.69,4.91,104.68,19.92,8.81,4.27,28.24,13.59,16.7,25.7ZM244.06,135.33c-4.77-.68-19.04-9.44-25.17-11.86-38.6-15.28-90.65-18.75-131.4-11.72-7.64,1.32-20.94,6.25-27.7,4.81-11.36-2.42-13.76-19.35-3.46-25.12,11.77-6.58,45.61-9.85,59.71-10.54,39.25-1.91,104.58,6.07,137.53,28.75,13.43,9.25,5.76,27.87-9.52,25.68Z"/>
  <path d="M543.14,121.21c-19.01-11.75-42.11-9.7-57.06,7.26-.16-4.12.53-8.36-.78-12.33h-25.48v132.18c0,.08,1.08,1.16,1.16,1.16h23.16c.18,0,1.93-2.41,1.93-2.7v-39.69c17.55,19.49,49.18,17.96,66.43-1.14,20.88-23.12,18.11-67.77-9.35-84.74ZM515.01,197.82c-36.75,2.63-40.33-56.01-5.97-60.67,37.18-5.05,41.35,58.14,5.97,60.67Z"/>
  <path d="M621.81,114.05c-41.98,4.29-63.91,54.28-36.88,87.23,27.18,33.14,83.58,23.31,95.92-18.28,11.4-38.39-19.98-72.95-59.04-68.96ZM624.67,197.83c-32.96-3.25-34.35-57.76.99-60.65,40.66-3.33,42.2,64.92-.99,60.65Z"/>
</svg>