<?xml version="1.0" encoding="UTF-8"?>
<svg id="_레이어_1" data-name="레이어 1" xmlns="http://www.w3.org/2000/svg" viewBox="0 0 302.12 300">
  <g id="Qe5Qdr.tif">
    <g>
      <path d="M155.44.07c29.92.98,59.26,10.75,83.56,28.17,38.15,27.35,62.07,71.49,63.11,118.77-7.49.8-13.79-1.09-20.47-4.18-9.71-4.49-15.56-9.24-27.18-8.53-.65.04-3.76.36-3.76.77,2.38,3.82,4.27,7.98,5.77,12.21,5.81-.35,10.84.76,16.1,3.1,5.87,2.61,15.84,9.33,22.12,9.33h7.41l-.91,10.58c-15.52,2.87-25.51-13.03-40.82-11.79l2.43,11.48c13.63-.12,22.47,14.21,36.58,11.5l-3.25,12.09c-12.02,1.32-19.53-12.29-31.83-10.89l.3,9.98c11.1-.5,17.33,11.35,28.43,11.03l-5.03,11.67c-6.44-.71-10-6.63-15.68-9.1-2.82-1.23-5.84-1.74-8.91-1.49l-1.53,8.45c3.98-.31,7.39.89,10.56,3.2,3.49,2.54,6.53,6.87,11.22,7.08.24.23-1.19,2.73-1.46,3.23-1.51,2.74-3.31,5.36-5.04,7.96-5.83-4.12-10.13-10.62-17.99-10.88l2.42-8.76c-9.33-.02-18.06-4.06-25.03-10.04.93-12.26-9.46-20.83-15.74-30.08-4.82-7.1-4.78-10.72-2.82-19.03,2.05-8.7,5.06-15.68,4.59-25.07-.57-11.29-6.79-24.69-15.29-32.18-.36-.32-3.24-2.65-3.47-2.42,9.54,12.36,15.07,25.88,12.3,41.78-1.42,8.16-5.52,16.28-5.97,24.57-1.03,19.19,24.03,26.97,18.61,47.93-1.33,5.16-4.2,9.72-6.36,14.52,6.19,6.34,17.27,13.3,26.32,13.6,5.76.19,5.96-2.97,7.74-7.52,7.12.05,11.02,6.32,15.96,10.39-2.4,2.72-4.56,6.37-7.1,8.9-.25.25-.27.43-.73.32-.02-.26-.12-.56-.3-.75-3.46-3.64-6.93-8.36-12.11-9.4l-3.32,5.77c4.76,1.89,8.16,5.68,10.85,9.93l-8.59,8.35c-1.97-2.54-5.05-7.31-8.02-8.62-.23-.1-.38-.25-.6,0l-3.63,4.85c2.9,2.16,5.23,4.99,6.92,8.18l-10.7,8c-.27,0-1.13-3.74-1.36-4.38-5.14-14.39-18.87-19.65-16.42-37.57.04-.33.33-1.04-.22-.97-1.19,2.45-2.6,4.84-3.19,7.55-2.73,12.65,9.56,23.08,13.25,34.24.44,1.33,1.63,4.67.63,5.65-.37.37-7.61,4.53-7.98,4.26-.91-12.75-10.6-23.08-14.07-34.77-6.24-21.02,25.03-34.33,13.01-57.46-4.38-8.42-15.01-17.23-16.45-26.49-1.61-10.37,5.77-22.02,7.44-32.4,2.24-13.95-1.99-28.64-11.7-38.92-.73-.77-6.92-6.49-7.57-5.89l6.17,8.79c6.7,10.58,8.57,23.89,5.53,36.02-2.34,9.32-7.57,17.73-8.09,27.59-1.15,21.92,27.57,28.28,16.4,52.38-6.44,13.9-19.42,22.46-13.37,39.86,4.11,11.82,14.26,22.21,14.18,35.49l-10.25,3.96v-5.59c0-8.96-11.06-24.22-14.14-33.33-5.5-16.27,6.38-24.9,13.09-37.87,14.05-27.16-16.19-32.11-14.99-54.9.6-11.4,8.06-20.94,10.51-31.82,3.54-15.7-2.31-32.19-14.42-42.55-.52-.44-4.29-3.5-3.59-.96.13.46,2.25,2.88,2.74,3.61,8.55,12.87,10.88,27.03,5.68,41.8-4.59,13.06-13.53,24.67-9.46,39.38,3.22,11.62,15.78,18.78,16.71,30.77,1.14,14.71-15.92,26.74-18.6,40.95s9.39,27.34,13.25,40.29c1.39,4.67,1.71,8.93,1.4,13.81l-10.85,2.45c.38-4.34.34-8.15-.4-12.45-2.07-11.99-9.26-20.76-12.69-31.76-7.01-22.51,19.63-33.67,18.24-53.61-.78-11.16-11.74-17.3-14.92-27.41-1.18-3.76-.44-8.32-6.04-7.42-3.43.55-6.41,2.2-10.34,2.36-5.28.21-8.34-1.83-12.74-2.4-5.35-.69-4.65,3.85-5.79,7.47-2.95,9.4-12.81,15.35-14.77,25.15-3.78,18.95,23.41,33.3,18.83,53.29-1.59,6.93-6.19,14.02-9.04,20.6-3.66,8.44-6.19,16.85-4.79,26.21l-10.84-2.46c-2.53-15.51,9.72-28.06,13.79-41.92,5.11-17.4-8.16-26.8-14.85-40.62-11.05-22.83,12.11-28.01,14.59-47.02,2.2-16.88-11.88-30.88-12.98-47.12-.76-11.33,2.26-21.24,8.54-30.49.59-.88,2.17-2.49,2.51-3.24.49-1.09-.33-1.4-1.28-.97-1.32.6-5.88,5.24-7.04,6.57-9.14,10.4-12.57,24.69-9.47,38.2,2.5,10.89,9.72,20.14,10.38,31.65,1.17,20.43-25.26,26.69-17.24,49.59,4.67,13.33,20.01,24.72,16.19,40.06-1.84,7.4-6.87,14.5-10.09,21.36-2.93,6.22-5.79,13.4-4.88,20.37l-10.24-3.97c-.3-13.53,10.68-24.27,14.49-36.38,6.78-21.55-18.3-32.66-16.34-52.31.96-9.66,13.18-18.91,17.07-27.98,6.63-15.44-5.77-30.13-7.36-45.23-1.15-10.85,1.58-21.68,7.58-30.74l5.38-7.46c-4.22,2.03-7.91,5.96-10.7,9.71-7.72,10.36-10.72,22.58-8.56,35.41,2.53,15.06,13.18,26,3.48,41.15-8.89,13.88-20.76,20.13-12.6,39.02,6.15,14.22,18.65,22.04,11.9,39.19-4.1,10.41-12,19.81-12.85,31.45l-7.98-4.26c-.98-.79-.24-2.74.03-3.83,2.96-11.83,16.43-22.57,13.91-35.5-.57-2.91-1.9-5.5-3.24-8.1-.55-.07-.26.65-.22.97.11.84.46,1.66.52,2.51,1.17,15.9-15.85,24.63-18.14,39.45l-10.86-8.05c1.74-3.15,4.04-5.98,6.93-8.14l-3.64-4.97c-3.8,1.75-6.21,5.5-8.61,8.76l-8.57-8.35c2.5-4.24,6.15-8.06,10.83-9.93l-3.32-5.77c-5.52,1.11-9.11,6.31-12.86,10.15l-7.35-9.22c4.95-4.12,8.73-10.39,15.95-10.4,1.35,3.24,1.66,7.23,5.91,7.54,5.3.39,13.02-2.79,17.61-5.4,3.88-2.21,7.45-4.99,10.54-8.21-3.32-6.85-7.97-14.54-7.38-22.49.81-10.87,14.09-20.71,18.16-30.82,4.6-11.44-3.24-23.85-4.81-35.21-2.13-15.39,3.38-28.38,12.62-40.28-.23-.22-3.11,2.11-3.47,2.42-13.15,11.58-17.45,29.4-13.86,46.2,2.36,11.03,7.89,18.59.82,29.36-6.16,9.39-17.61,18.49-16.19,30.82-7.07,5.93-15.66,9.96-25.06,10.03l2.42,8.76c-7.81.3-12.28,6.65-17.99,10.88-1.74-2.6-3.52-5.22-5.04-7.96-.29-.51-1.78-2.91-1.46-3.23,4.63-.23,7.72-4.54,11.22-7.07,3.2-2.31,6.54-3.53,10.55-3.21l-1.53-8.45c-10.58-1.71-15.42,8.8-24.59,10.59l-5.03-11.67c11.05.26,17.36-11.5,28.43-11.03l.3-9.98c-3.16-.21-6.01.43-8.93,1.51-7.76,2.87-13.96,10.65-22.93,9.4l-3.22-12.12c10.69,2.23,18.37-5.91,27.23-9.52,3.11-1.27,6-1.79,9.35-1.99l2.43-11.48c-13.85-1.23-23.06,11.7-36.43,12.1-1.53.05-2.9-.17-4.39-.32l-.91-10.58h7.11c6.63,0,16.31-6.63,22.42-9.33,5.27-2.33,10.28-3.46,16.1-3.1,1.59-4.2,3.36-8.4,5.77-12.21,0-.41-3.11-.73-3.76-.77-12.88-.79-19.1,5.24-29.9,9.74-5.73,2.39-11.31,3.61-17.55,2.93l-.5-.71C1.47,95.18,29.71,47.85,73.21,21.71,95.4,8.38,121.08.92,146.98.07c2.73-.09,5.74-.09,8.47,0ZM151.51,9.14l-8.23,18.37-19.89,1.59,14.47,13.22-6.31,17.62c-6.96-6.82-15.56-11.45-25.03-13.82-2.22-.56-6.53-1.6-8.68-1.61-.45,0-.89-.2-.76.46,4.99,7.56,9.39,15.69,12.09,24.34l-7.36-4.59c-6.33-3.28-13.34-5.16-20.46-5.69l8.59,12.42c1.49,2.54,3.04,5.05,4.46,7.63.75,1.37,3.61,7.85,4.36,8.34.54.35,1.09.4,1.71.28,1.15-.23,4.35-2.13,5.77-2.72,31.17-12.88,65.39-12.53,95.69,2.72.92.18,1.57-.01,2.15-.74,1.3-1.63,2.94-6.13,4.12-8.28,1.17-2.13,2.44-4.22,3.66-6.32l9.2-13.33c-7.58.56-15.01,2.67-21.67,6.3l-6.15,3.98c2.6-8.69,7.15-16.78,12.09-24.34.13-.65-.3-.46-.76-.46-2.15,0-6.46,1.05-8.68,1.61-9.41,2.36-18.19,6.95-25.03,13.82l-6.31-17.62,14.47-13.22-19.9-1.58-7.63-18.38ZM86.19,95.92c-11.85-4.4-25.25-2.95-35.84,3.92l-2.72-8.76c-2.14-5.43-6.54-11.86-11.19-15.42-.93-.71-2.9-2.52-4.09-1.69-.56.39-.21,7.16-.28,8.48-1.21,20.48-14.47,37.89-27.81,52.31,5.25,2.29,11.84.19,16.93-1.82,10.67-4.2,19.14-10.41,31.47-8.17,1.1.2,3.74,1.32,4.52.93.46-.23,5.13-7.03,6.06-8.17,4.18-5.14,9.47-10.53,14.5-14.83,2.75-2.35,5.91-4.29,8.47-6.8ZM216.23,95.92c2.56,2.5,5.73,4.45,8.47,6.8,5,4.28,10.35,9.71,14.5,14.83.93,1.14,5.6,7.94,6.06,8.17.77.39,3.42-.74,4.52-.93,11.63-2.11,19.88,3.4,29.96,7.56,5.56,2.3,12.6,4.89,18.43,2.43-13.18-13.76-26.56-31.96-27.81-51.7-.09-1.38.29-8.69-.28-9.09-1.23-.85-3.3,1.09-4.26,1.83-7.19,5.56-11.99,15.2-13.61,24.04-10.75-6.76-24.01-8.4-35.98-3.93ZM180.24,101.66c-3.47-14.18-20.21-20.81-33.68-19.01-10.45,1.39-22.06,8.03-24.38,19.01,3.8-.83,7.04-2.07,11.03-1.81,3.51.23,9.86,2.26,11.95,5.29,1.53,2.22,1.56,9.03,1.13,11.72-.08.52-.6,2.86-.99,2.95-1.62-.45-3.45-2.31-5.15-2.39-2.09-.1-5.21,1.76-7.54,1.79-2.8.03-4.15-1.33-6.11-1.74-3.11-.65-4.52.74-4.89,3.74-1.76,14.51,11.51,36.93,26.51,39.64,17.8,3.22,34.29-23.41,32.73-39.07-.14-1.42-.75-3.22-1.96-4.08-2.09-1.48-2.75.17-4.62.82-4.36,1.52-5.77.17-9.61-.8-5.03-1.28-3.32,5.04-7.2,5.75-2.15-3.85-2.59-14.82-.19-18.32,2.04-2.97,8.24-4.99,11.68-5.25,4.13-.32,7.39.89,11.3,1.77ZM140.02,111.64c-.12-6.11-13.61-8.77-16.76-5.12-1.19,1.38-.75,3.91.52,5.02,1.04.92,1.34-.24,2.12-.57,4.67-2,9.49-.88,14.12.67ZM170.8,105.07c-2.58.31-9.08,2.8-6.74,6.25,4.36-1.6,10.04-2.7,13.87.59,3.35-2.55,2.09-6.48-2.07-6.93-1.38-.15-3.66-.08-5.06.09Z"/>
      <path d="M151.1,52.74l16.13,12.18c-.31.45-.54.45-1.04.46-2.23.05-6.18-1.07-8.79-1.22-7.17-.39-14.7.05-21.76,1.2l-.32-.6,15.78-12.03Z"/>
      <path d="M139.42,140.66c.43-.61,6.22.55,7.4.61,2.61.15,6.18.15,8.8,0,1.82-.11,4.77-.98,6.36-.89,1,.05,1.16.75.59,1.49-4.16,5.41-10.35,9.96-17.08,5.56-1-.65-5.17-4.76-5.78-5.71-.24-.37-.38-.61-.29-1.07Z"/>
      <path d="M158.43,133.07c-2.59.54-4.6,2.07-7.32,2.04-2.62-.03-4.48-1.5-6.98-1.96-.99-1.65,1.43-2.58,2.73-2.73,1.71-.21,2.94.64,4.51.6,1.33-.03,2.49-.77,3.93-.64,1.09.1,4.11,1.19,3.14,2.7Z"/>
    </g>
  </g>
</svg>