<?xml version="1.0" encoding="UTF-8"?>
<svg id="_레이어_1" data-name="레이어 1" xmlns="http://www.w3.org/2000/svg" viewBox="0 0 751.12 300">
  <path d="M166.75,299.24v-20.25h208.06c-6.71,7.58-16.32,12-25.34,16.32l-15.97,4.68h-3.76c-54.42.08-108.76-.17-162.99-.75Z"/>
  <polygon points="751.12 239.24 751.12 260.24 645.97 259.11 645.97 239.24 751.12 239.24"/>
  <path d="M751.12,278.99v20.25c-34.12.66-70.77.66-105.16,0,.7-5.48-.96-13.21,0-18.38.16-.85.26-1.52,1.23-1.77l103.93-.1Z"/>
  <path d="M583.62,299.99c-1.81-7.06-5.89-13.77-6.76-21h15.02c-1.04,7.15-4.88,13.97-6.76,21h-1.5Z"/>
  <path d="M1.5,279.74c.59.16,1.46.41,1.5.86.17,1.93.5,16.84,0,17.56-.38.54-.84.93-1.5,1.08l.53-1.5h144.27l.93,1.5c-.59-.16-1.46-.41-1.5-.86-.18-1.82-.29-16.73,0-17.56l1.5-1.08c1.89,1.87.14,16.6.75,20.25H.75c.61-3.65-1.14-18.38.75-20.25Z"/>
  <path d="M417.62,279.74c.59.16,1.47.41,1.5.86.38,4.71.38,12.84,0,17.56l-1.5,1.08.52-1.5h102.21l.92,1.5c-.59-.16-1.46-.41-1.5-.86-.18-1.82-.29-16.73,0-17.56l1.5-1.08c1.89,1.87.14,16.6.75,20.25h-105.16c.61-3.65-1.14-18.38.75-20.25Z"/>
  <path d="M577.24,119.24c1.38.42,5.84,14.71,6.39,17.25,3.02-1.63,5.53-17.25,7.88-17.25h117.55v21h-63.09l-.38-9.76-3.88,9.79-114.81-.03c-2.44.18-3.7-9.02-4.5-9.02l-.38,9.01h-63.85v-21h119.05Z"/>
  <path d="M398.85,60.75h-232.1v-21h224.21c3.01,0,8.05,17.72,7.89,21Z"/>
  <path d="M398.85,239.24c.17,3.28-4.88,21-7.89,21h-224.21v-21h232.1Z"/>
  <path d="M374.06,21h-207.31V0h166.37c9.03,0,32.17,11.73,39.04,18.02.92.84,2.15,1.5,1.9,2.98Z"/>
  <path d="M387.58,119.24c-2.22,8.83-10.86,14.64-16.9,21h-161.87v-21h178.77Z"/>
  <path d="M387.58,179.99h-178.77v-20.25h161.12c1.7,0,17.79,16.42,17.65,20.25Z"/>
  <path d="M1.88,239.24h144.97c2.21,0,.58,13.88.52,16.12-.02.84,1.45,4.87-.52,4.87H1.88c-1.97,0-.5-4.04-.52-4.87-.06-2.24-1.69-16.12.52-16.12Z"/>
  <rect width="146.47" height="21"/>
  <rect y="39.75" width="146.47" height="21"/>
  <rect x="1.5" y="279.74" width="145.72" height="19.5"/>
  <path d="M556.58,60.75h-140.46v-21h132.57c3.56,6.38,5.6,13.99,7.89,21Z"/>
  <path d="M619.3,39.75h129.94c.08,0,1.13,1.05,1.13,1.12v18.75c0,.08-1.05,1.12-1.13,1.12h-136.7c-.27,0-.99-.7-.8-1.53.4-1.7,6.52-19.47,7.56-19.47Z"/>
  <polygon points="535.55 0 542.31 21 416.12 21 416.12 0 535.55 0"/>
  <path d="M750.37,0v19.87c0,.08-1.05,1.12-1.13,1.12h-123.56l6.76-21h117.93Z"/>
  <path d="M570.85,100.5h-112.67v-21h104.78c3.56,6.38,5.6,13.99,7.89,21Z"/>
  <path d="M709.06,79.5v21h-111.17c1.24-7.14,4.76-13.97,6.76-21h104.41Z"/>
  <path d="M418,239.24h102.9c2.39,0,.64,14.04.52,16.12-.05.86,1.47,4.88-.52,4.88h-102.9c-1.99,0-.47-4.01-.52-4.88-.12-2.08-1.86-16.12.52-16.12Z"/>
  <rect x="417.62" y="279.74" width="103.66" height="19.5"/>
  <path d="M634.7,159.74l-6.67,19.81c-28.93,1.05-58.36.11-87.47.48-2.85-6.53-5.63-13.32-7.25-20.28h101.4Z"/>
  <path d="M620.43,199.49c-.66,3.13-5.85,19.82-7.5,20.63l-57.35.24c-1.95-.66-6.93-17.82-8.01-20.88h72.86Z"/>
  <path d="M333.5,100.5v-21h66.47c1.27,0,.36,6.34.17,7.67-.58,4.18-1.88,9.71-3.93,13.33h-62.72Z"/>
  <path d="M400.35,220.49h-66.85v-21h62.72c3.21,6.11,4.22,14.03,4.13,21Z"/>
  <path d="M105.91,199.49v19.87c0,.08-1.05,1.12-1.13,1.12h-62.72v-21h63.85Z"/>
  <path d="M105.91,140.24h-63.85v-21h62.72c.08,0,1.13,1.05,1.13,1.12v19.87Z"/>
  <path d="M42.06,100.5v-21h62.72c.08,0,1.13,1.05,1.13,1.12v18.75c0,.08-1.05,1.12-1.13,1.12h-62.72Z"/>
  <path d="M522.03,199.49c.41,4.58-.35,9.23-.47,13.75-.03,1.07,1.48,7.25-.66,7.25h-62.72v-21h63.85Z"/>
  <rect x="208.81" y="199.49" width="63.09" height="21"/>
  <rect x="208.81" y="79.5" width="63.09" height="21"/>
  <path d="M709.06,199.49v21h-61.97c-.08,0-1.13-1.05-1.13-1.12v-19.87h63.09Z"/>
  <rect x="42.06" y="159.74" width="63.85" height="20.25"/>
  <polygon points="522.03 159.74 521.28 179.99 458.19 179.99 458.19 159.74 522.03 159.74"/>
  <rect x="645.97" y="159.74" width="63.09" height="20.25"/>
  <path d="M606.16,239.24c.81.76-5.94,18.67-7.5,20.63l-29.34.02-7.48-20.66h44.32Z"/>
</svg>